<svg width="27" height="27" viewBox="0 0 27 27" fill="none" xmlns="http://www.w3.org/2000/svg">
<path d="M12.1893 0.237152C11.3933 0.608595 11.2739 0.900442 11.1943 2.55867L11.128 3.99137L10.3984 4.25669C8.75341 4.86692 7.12172 6.29962 6.3523 7.79866C5.60942 9.27116 5.58289 9.52321 5.50329 14.5775C5.4237 18.995 5.41043 19.3134 5.15838 19.7511C4.94613 20.0961 4.73387 20.2685 4.25631 20.4144L3.63281 20.6134V21.5022V22.4043H8.11665C12.0699 22.4176 12.5342 22.4308 12.1627 22.6033C10.8229 23.187 10.8892 25.3626 12.2556 25.9065C12.9189 26.1718 13.0515 26.1718 13.7148 25.9065C15.0812 25.3626 15.1475 23.187 13.8077 22.6033C13.4362 22.4308 13.9005 22.4176 17.867 22.4043H22.3376V21.489V20.5869L21.8335 20.494C21.3294 20.4144 20.9181 20.0828 20.6263 19.5256C20.5334 19.3266 20.4804 17.947 20.4804 15.254C20.4804 10.9294 20.361 9.65587 19.8702 8.40889C19.1405 6.60474 17.4027 4.91998 15.5986 4.26996L14.8424 4.00464L14.7761 2.55867C14.6965 0.913708 14.5771 0.635126 13.7679 0.250418C13.1046 -0.0812263 12.8658 -0.0812263 12.1893 0.237152ZM14.1393 5.70266C16.2751 6.1537 18.0793 7.99765 18.4905 10.1998C18.5568 10.5845 18.6232 12.8131 18.6232 15.1612C18.6364 18.5174 18.6762 19.5256 18.8222 19.9501C18.9283 20.242 19.0211 20.494 19.0211 20.5073C19.0211 20.5338 16.3017 20.5471 12.9852 20.5471C9.66875 20.5471 6.94926 20.5073 6.94926 20.441C6.94926 20.3879 7.04212 20.1093 7.14825 19.8175C7.29417 19.393 7.33397 18.3848 7.34724 15.0153C7.34724 12.3754 7.4003 10.4784 7.49316 10.0406C8.12992 7.04251 11.1413 5.07917 14.1393 5.70266Z" fill="white"/>
<path d="M1.40407 7.54539C1.03263 7.70458 0.793841 8.26175 0.356069 9.93324C-0.267423 12.3211 -0.0551705 15.6243 0.86017 17.7468C1.24488 18.6621 1.82857 18.8744 2.4786 18.3172C2.78371 18.0519 2.77045 17.6805 2.37247 16.5131C1.62959 14.2977 1.62959 11.8833 2.37247 9.56179C2.78371 8.26175 2.78371 8.02296 2.35921 7.69132C1.9745 7.3862 1.85511 7.37294 1.40407 7.54539Z" fill="white"/>
<path d="M23.8228 7.5463C23.2789 7.77182 23.186 8.24939 23.5177 9.19126C24.3667 11.6056 24.3932 14.2323 23.584 16.6068C23.4115 17.1242 23.2656 17.6681 23.2656 17.8273C23.2656 18.4508 24.2738 18.8488 24.7779 18.4375C24.8841 18.3447 25.1228 17.814 25.3086 17.2569C25.9586 15.2537 26.1443 13.4894 25.9188 11.5924C25.7596 10.226 25.1096 7.94427 24.8177 7.70549C24.5524 7.49324 24.1412 7.42691 23.8228 7.5463Z" fill="white"/>
</svg>
