<svg width="31" height="88" viewBox="0 0 31 88" fill="none" xmlns="http://www.w3.org/2000/svg">
<g clip-path="url(#clip0)">
<path d="M0.847412 0.150635C16.9474 23.6506 24.1474 53.1506 20.5474 81.4506C20.5474 81.7506 20.2474 81.9506 19.9474 81.8506C19.6474 81.8506 19.4474 81.5506 19.5474 81.2506C23.4474 53.2506 16.6474 23.8506 0.847412 0.150635Z" fill="white"/>
<path d="M6.64746 71.9506C8.94746 74.3506 11.1475 76.7506 13.2475 79.2506C15.4475 81.7506 17.5475 84.2506 19.6475 86.7506H18.9475C20.8475 85.0506 22.7475 83.3506 24.6475 81.6506C26.5475 79.9506 28.5475 78.3506 30.5475 76.7506C28.7475 78.5506 26.9475 80.3506 25.1475 82.1506C23.3475 83.9506 21.4475 85.6506 19.6475 87.4506C19.4475 87.6506 19.1475 87.6506 18.9475 87.4506C16.8475 84.9506 14.7475 82.4506 12.6475 79.8506C10.6475 77.1506 8.54746 74.5506 6.64746 71.9506Z" fill="white"/>
</g>
<defs>
<clipPath id="clip0">
<rect x="0.847412" y="0.150635" width="29.7" height="87.4" fill="white"/>
</clipPath>
</defs>
</svg>
