<svg width="59" height="23" viewBox="0 0 59 23" fill="none" xmlns="http://www.w3.org/2000/svg">
<path d="M58.5 22.75C52.9184 19.25 47.5795 15.75 42.4833 12.1042C37.1443 8.45832 32.0481 4.81248 26.9519 1.16665L28.6506 1.16665C24.0397 3.64582 19.4289 6.12499 14.818 8.60415C10.2071 11.0833 5.35355 13.4166 0.499993 15.75C4.8682 13.125 9.2364 10.5 13.6046 7.87499C17.9728 5.24999 22.5837 2.77082 26.9519 0.145816C27.4372 -0.14585 28.1653 -0.14585 28.6506 0.145816C33.7469 3.79165 38.8431 7.43749 43.9393 11.2292C48.7929 15.0208 53.8891 18.8125 58.5 22.75Z" fill="white"/>
</svg>
