<svg width="236" height="145" viewBox="0 0 236 145" fill="none" xmlns="http://www.w3.org/2000/svg">
<path d="M30.1471 15.3945L38.2176 15.3748L42.744 32.8498L48.0815 15.3506L55.2553 15.333L60.6785 32.8059L65.5676 15.3077L73.6381 15.288L64.7423 44.4534L57.5685 44.4709L52.1453 26.9981L46.3595 44.4984L39.1857 44.516L30.1471 15.3945Z" fill="white"/>
<path d="M30.1422 13.3945L27.4343 13.4012L28.237 15.9874L37.2756 45.1088L37.7135 46.5196L39.1906 46.516L46.3644 46.4984L47.8059 46.4949L48.2584 45.1262L52.0852 33.5514L55.6584 45.0638L56.0962 46.4745L57.5734 46.4709L64.7472 46.4533L66.2243 46.4497L66.6553 45.0368L75.551 15.8714L76.3411 13.2813L73.6332 13.288L65.5627 13.3077L64.0487 13.3115L63.6413 14.7695L60.5777 25.7343L57.1654 14.7402L56.7275 13.3294L55.2504 13.333L48.0766 13.3506L46.5995 13.3542L46.1685 14.7671L42.901 25.4798L40.1537 14.8733L39.7646 13.371L38.2127 13.3748L30.1422 13.3945Z" stroke="black" stroke-opacity="0.17" stroke-width="4"/>
<path d="M78.9933 4.96289L87.0638 4.94311L87.0989 19.2906C88.8869 17.0444 91.5716 14.7961 95.6068 14.7862C101.884 14.7708 105.481 18.7972 105.497 25.5226L105.543 44.3538L97.4728 44.3736L97.4332 28.2326C97.4233 24.1973 95.6255 22.4083 92.4869 22.416C89.3484 22.4237 87.5594 24.2215 87.5693 28.2568L87.6088 44.3977L79.5383 44.4175L79.4416 4.96179L78.9933 4.96289Z" fill="white"/>
<path d="M89.0638 4.93821L89.0589 2.93822L87.0589 2.94312L81.4367 2.9569L79.4367 2.9618L78.9884 2.9629L78.9933 4.96289L77.4417 4.96669L77.5383 44.4224L77.5432 46.4224L79.5432 46.4175L87.6137 46.3977L89.6137 46.3928L89.6088 44.3928L89.5693 28.2519C89.5649 26.4887 89.9596 25.5907 90.3504 25.1456C90.6998 24.7476 91.3048 24.4189 92.4918 24.416C93.6789 24.4131 94.2855 24.7389 94.6369 25.1351C95.0298 25.5782 95.4289 26.4744 95.4332 28.2375L95.4728 44.3785L95.4777 46.3785L97.4777 46.3736L105.548 46.3538L107.548 46.3489L107.543 44.3489L107.497 25.5177C107.488 21.8159 106.491 18.5925 104.376 16.2776C102.237 13.9361 99.1853 12.7774 95.6019 12.7862C92.9625 12.7926 90.8159 13.5997 89.0878 14.7324L89.0638 4.93821Z" stroke="black" stroke-opacity="0.17" stroke-width="4"/>
<path d="M110.903 35.8217C110.887 29.5447 115.811 26.3941 122.537 26.3776C125.227 26.371 127.47 26.8139 129.714 27.7051L129.713 27.2567C129.704 23.6698 127.458 21.8819 123.423 21.8918C120.284 21.8995 118.043 22.3533 115.355 23.2566L113.098 16.9851C116.233 15.6323 119.37 14.7279 124.302 14.7158C128.785 14.7048 131.927 16.0422 134.173 17.8302C136.421 20.0665 137.325 23.2028 137.335 27.238L137.376 43.8274L129.305 43.8472L129.299 41.157C127.511 43.4032 124.375 44.756 120.788 44.7648C114.96 44.779 110.917 41.6504 110.903 35.8217ZM129.281 33.9832L129.278 32.6381C127.93 31.7447 126.136 31.3008 124.342 31.3052C120.756 31.3139 118.517 32.6645 118.524 35.3547C118.529 37.5965 120.326 38.9372 123.016 38.9306C127.051 38.9207 129.288 36.6734 129.281 33.9832Z" fill="white"/>
<path d="M126.793 24.7584C126.796 24.7609 126.799 24.7634 126.802 24.7659C125.457 24.5032 124.054 24.3739 122.532 24.3776C118.892 24.3865 115.505 25.2401 112.981 27.1601C110.384 29.1355 108.893 32.0985 108.903 35.8266C108.911 39.2337 110.116 42.0554 112.355 43.9957C114.556 45.9032 117.539 46.7727 120.793 46.7648C123.138 46.759 125.391 46.2444 127.309 45.2628L127.31 45.8521L129.31 45.8472L137.381 45.8274L139.381 45.8225L139.376 43.8225L139.335 27.2331C139.324 22.9263 138.358 19.1727 135.584 16.4125L135.506 16.3344L135.419 16.2654C132.806 14.1853 129.219 12.7038 124.297 12.7158C119.06 12.7287 115.657 13.703 112.306 15.1487L110.58 15.8935L111.216 17.6624L113.474 23.9339L114.137 25.7761L115.993 25.1525C118.507 24.3075 120.533 23.8989 123.428 23.8918C125.189 23.8875 126.224 24.2813 126.793 24.7584ZM124.347 33.3051C125.424 33.3025 126.442 33.4968 127.281 33.8394L127.281 33.9881C127.283 34.7456 126.983 35.4186 126.372 35.9353C125.744 36.4669 124.666 36.9265 123.011 36.9306C121.975 36.9331 121.332 36.6737 120.995 36.4101C120.711 36.188 120.525 35.8809 120.524 35.3498C120.522 34.6558 120.762 34.2788 121.199 33.9858C121.748 33.618 122.755 33.3091 124.347 33.3051Z" stroke="black" stroke-opacity="0.17" stroke-width="4"/>
<path d="M145.426 35.7371L145.393 22.2863L141.807 22.295L141.789 15.1213L145.376 15.1125L145.358 7.93872L153.429 7.91894L153.446 15.0927L160.172 15.0762L160.189 22.25L153.464 22.2665L153.494 34.3722C153.498 36.1657 154.397 37.0602 156.19 37.0558C157.535 37.0525 158.879 36.6008 160.223 36.1492L160.24 42.8746C158.449 43.7757 156.657 44.6768 153.967 44.6834C148.587 44.6966 145.443 42.4625 145.426 35.7371Z" fill="white"/>
<path d="M155.494 34.3673L155.469 24.2616L160.194 24.25L162.194 24.2451L162.189 22.2451L162.172 15.0713L162.167 13.0713L160.167 13.0762L155.441 13.0878L155.429 7.91404L155.424 5.91405L153.424 5.91895L145.353 5.93873L143.353 5.94363L143.358 7.94362L143.371 13.1174L141.784 13.1213L139.784 13.1262L139.789 15.1262L139.807 22.2999L139.811 24.2999L141.811 24.295L143.398 24.2911L143.426 35.742C143.435 39.3739 144.287 42.2535 146.303 44.1823C148.305 46.098 151.057 46.6905 153.972 46.6834C157.135 46.6756 159.282 45.5954 161.077 44.6925L161.139 44.6612L162.243 44.1057L162.24 42.8697L162.223 36.1443L162.217 33.3694L159.586 34.2534C158.175 34.7276 157.147 35.0534 156.185 35.0558C155.8 35.0567 155.635 34.9947 155.584 34.9682C155.557 34.9169 155.494 34.7523 155.494 34.3673ZM155.565 34.9565C155.565 34.9563 155.568 34.9579 155.572 34.9616C155.567 34.9585 155.565 34.9567 155.565 34.9565ZM155.591 34.9801C155.594 34.9845 155.596 34.987 155.596 34.9872C155.596 34.9873 155.594 34.9851 155.591 34.9801Z" stroke="black" stroke-opacity="0.17" stroke-width="4"/>
<path d="M79.1394 111.212L87.2099 111.192L87.2198 115.227C89.0077 112.981 91.6924 110.733 95.7276 110.723C102.005 110.708 105.601 114.734 105.618 121.459L105.664 140.291L97.1452 140.311L97.1057 124.171C97.0958 120.135 95.298 118.346 92.1594 118.354C89.0209 118.362 87.2319 120.159 87.2407 123.746L87.2802 139.887L79.2097 139.907L79.1394 111.212Z" fill="white"/>
<path d="M79.1345 109.212L77.1345 109.217L77.1394 111.217L77.2097 139.912L77.2146 141.912L79.2146 141.907L87.2851 141.887L89.2851 141.882L89.2802 139.882L89.2406 123.741C89.237 122.257 89.6057 121.476 89.9822 121.072C90.3392 120.69 90.9735 120.357 92.1643 120.354C93.3514 120.351 93.958 120.677 94.3094 121.073C94.7023 121.516 95.1014 122.412 95.1057 124.175L95.1452 140.316L95.1501 142.316L97.1501 142.311L105.669 142.291L107.669 142.286L107.664 140.286L107.618 121.455C107.609 117.753 106.612 114.529 104.497 112.214C102.358 109.873 99.3062 108.714 95.7227 108.723C93.0833 108.729 90.9368 109.537 89.2086 110.669L89.205 109.187L87.205 109.192L79.1345 109.212Z" stroke="black" stroke-opacity="0.17" stroke-width="4"/>
<path d="M111.008 125.481C110.988 117.411 116.8 110.671 125.319 110.65C134.735 110.627 139.237 118.238 139.257 126.309C139.258 126.757 139.26 127.654 139.262 128.551L119.086 128.6C119.992 132.185 122.687 134.42 126.274 134.411C128.964 134.405 131.204 133.502 133.44 131.255L137.934 135.279C135.251 138.425 131.222 140.676 126.29 140.688C117.321 140.262 111.03 134.449 111.008 125.481ZM131.627 123.189C131.17 119.603 128.922 116.919 125.335 116.927C121.748 116.936 119.96 119.182 119.073 123.22L131.627 123.189Z" fill="white"/>
<path d="M139.267 130.551L141.267 130.546L141.262 128.546L141.262 128.541L141.262 128.535L141.262 128.53L141.262 128.525L141.262 128.52L141.262 128.514L141.262 128.509L141.262 128.504L141.262 128.499L141.262 128.493L141.262 128.488L141.262 128.483L141.262 128.478L141.262 128.472L141.262 128.467L141.262 128.462L141.262 128.457L141.262 128.451L141.262 128.446L141.262 128.441L141.262 128.436L141.262 128.43L141.262 128.425L141.262 128.42L141.262 128.415L141.262 128.409L141.262 128.404L141.262 128.399L141.262 128.394L141.262 128.388L141.262 128.383L141.262 128.378L141.262 128.373L141.262 128.367L141.262 128.362L141.262 128.357L141.262 128.352L141.262 128.346L141.262 128.341L141.262 128.336L141.262 128.331L141.262 128.325L141.262 128.32L141.262 128.315L141.262 128.31L141.262 128.304L141.262 128.299L141.262 128.294L141.262 128.289L141.262 128.284L141.262 128.278L141.262 128.273L141.262 128.268L141.262 128.263L141.262 128.257L141.262 128.252L141.262 128.247L141.262 128.242L141.262 128.237L141.262 128.231L141.262 128.226L141.262 128.221L141.262 128.216L141.262 128.21L141.262 128.205L141.262 128.2L141.262 128.195L141.262 128.19L141.261 128.184L141.261 128.179L141.261 128.174L141.261 128.169L141.261 128.164L141.261 128.158L141.261 128.153L141.261 128.148L141.261 128.143L141.261 128.138L141.261 128.132L141.261 128.127L141.261 128.122L141.261 128.117L141.261 128.112L141.261 128.106L141.261 128.101L141.261 128.096L141.261 128.091L141.261 128.086L141.261 128.081L141.261 128.075L141.261 128.07L141.261 128.065L141.261 128.06L141.261 128.055L141.261 128.05L141.261 128.044L141.261 128.039L141.261 128.034L141.261 128.029L141.261 128.024L141.261 128.019L141.261 128.013L141.261 128.008L141.261 128.003L141.261 127.998L141.261 127.993L141.261 127.988L141.261 127.983L141.261 127.977L141.261 127.972L141.261 127.967L141.261 127.962L141.261 127.957L141.261 127.952L141.261 127.947L141.261 127.942L141.261 127.936L141.261 127.931L141.261 127.926L141.261 127.921L141.261 127.916L141.261 127.911L141.261 127.906L141.261 127.901L141.261 127.896L141.261 127.89L141.261 127.885L141.261 127.88L141.261 127.875L141.261 127.87L141.261 127.865L141.261 127.86L141.261 127.855L141.261 127.85L141.261 127.845L141.261 127.84L141.261 127.835L141.261 127.83L141.261 127.824L141.261 127.819L141.261 127.814L141.261 127.809L141.261 127.804L141.261 127.799L141.261 127.794L141.261 127.789L141.261 127.784L141.261 127.779L141.26 127.774L141.26 127.769L141.26 127.764L141.26 127.759L141.26 127.754L141.26 127.749L141.26 127.744L141.26 127.739L141.26 127.734L141.26 127.729L141.26 127.724L141.26 127.719L141.26 127.714L141.26 127.709L141.26 127.704L141.26 127.699L141.26 127.694L141.26 127.689L141.26 127.684L141.26 127.679L141.26 127.674L141.26 127.669L141.26 127.664L141.26 127.659L141.26 127.654L141.26 127.649L141.26 127.644L141.26 127.639L141.26 127.634L141.26 127.629L141.26 127.624L141.26 127.62L141.26 127.615L141.26 127.61L141.26 127.605L141.26 127.6L141.26 127.595L141.26 127.59L141.26 127.585L141.26 127.58L141.26 127.575L141.26 127.57L141.26 127.566L141.26 127.561L141.26 127.556L141.26 127.551L141.26 127.546L141.26 127.541L141.26 127.536L141.26 127.531L141.26 127.527L141.26 127.522L141.26 127.517L141.26 127.512L141.26 127.507L141.26 127.502L141.26 127.498L141.26 127.493L141.26 127.488L141.26 127.483L141.26 127.478L141.26 127.473L141.26 127.469L141.26 127.464L141.26 127.459L141.26 127.454L141.26 127.449L141.26 127.445L141.26 127.44L141.26 127.435L141.26 127.43L141.26 127.425L141.26 127.421L141.26 127.416L141.26 127.411L141.26 127.406L141.26 127.402L141.26 127.397L141.26 127.392L141.26 127.387L141.26 127.383L141.26 127.378L141.26 127.373L141.259 127.369L141.259 127.364L141.259 127.359L141.259 127.354L141.259 127.35L141.259 127.345L141.259 127.34L141.259 127.336L141.259 127.331L141.259 127.326L141.259 127.322L141.259 127.317L141.259 127.312L141.259 127.308L141.259 127.303L141.259 127.298L141.259 127.294L141.259 127.289L141.259 127.284L141.259 127.28L141.259 127.275L141.259 127.271L141.259 127.266L141.259 127.261L141.259 127.257L141.259 127.252L141.259 127.248L141.259 127.243L141.259 127.238L141.259 127.234L141.259 127.229L141.259 127.225L141.259 127.22L141.259 127.216L141.259 127.211L141.259 127.207L141.259 127.202L141.259 127.197L141.259 127.193L141.259 127.188L141.259 127.184L141.259 127.179L141.259 127.175L141.259 127.17L141.259 127.166L141.259 127.161L141.259 127.157L141.259 127.152L141.259 127.148L141.259 127.144L141.259 127.139L141.259 127.135L141.259 127.13L141.259 127.126L141.259 127.121L141.259 127.117L141.259 127.112L141.259 127.108L141.259 127.104L141.259 127.099L141.259 127.095L141.259 127.09L141.259 127.086L141.259 127.082L141.259 127.077L141.259 127.073L141.259 127.068L141.259 127.064L141.259 127.06L141.259 127.055L141.259 127.051L141.259 127.047L141.259 127.042L141.259 127.038L141.259 127.034L141.259 127.029L141.259 127.025L141.259 127.021L141.259 127.017L141.259 127.012L141.259 127.008L141.259 127.004L141.259 126.999L141.259 126.995L141.259 126.991L141.259 126.987L141.259 126.982L141.259 126.978L141.259 126.974L141.259 126.97L141.259 126.966L141.259 126.961L141.258 126.957L141.258 126.953L141.258 126.949L141.258 126.945L141.258 126.94L141.258 126.936L141.258 126.932L141.258 126.928L141.258 126.924L141.258 126.92L141.258 126.915L141.258 126.911L141.258 126.907L141.258 126.903L141.258 126.899L141.258 126.895L141.258 126.891L141.258 126.887L141.258 126.883L141.258 126.878L141.258 126.874L141.258 126.87L141.258 126.866L141.258 126.862L141.258 126.858L141.258 126.854L141.258 126.85L141.258 126.846L141.258 126.842L141.258 126.838L141.258 126.834L141.258 126.83L141.258 126.826L141.258 126.822L141.258 126.818L141.258 126.814L141.258 126.81L141.258 126.806L141.258 126.802L141.258 126.798L141.258 126.794L141.258 126.79L141.258 126.787L141.258 126.783L141.258 126.779L141.258 126.775L141.258 126.771L141.258 126.767L141.258 126.763L141.258 126.759L141.258 126.756L141.258 126.752L141.258 126.748L141.258 126.744L141.258 126.74L141.258 126.736L141.258 126.733L141.258 126.729L141.258 126.725L141.258 126.721L141.258 126.717L141.258 126.714L141.258 126.71L141.258 126.706L141.258 126.702L141.258 126.699L141.258 126.695L141.258 126.691L141.258 126.687L141.258 126.684L141.258 126.68L141.258 126.676L141.258 126.673L141.258 126.669L141.258 126.665L141.258 126.662L141.258 126.658L141.258 126.654L141.258 126.651L141.258 126.647L141.258 126.643L141.258 126.64L141.258 126.636L141.258 126.633L141.258 126.629L141.258 126.625L141.258 126.622L141.258 126.618L141.258 126.615L141.258 126.611L141.258 126.608L141.258 126.604L141.258 126.601L141.258 126.597L141.258 126.594L141.258 126.59L141.258 126.587L141.258 126.583L141.258 126.58L141.258 126.576L141.258 126.573L141.258 126.569L141.258 126.566L141.258 126.562L141.258 126.559L141.258 126.556L141.257 126.552L141.257 126.549L141.257 126.545L141.257 126.542L141.257 126.539L141.257 126.535L141.257 126.532L141.257 126.529L141.257 126.525L141.257 126.522L141.257 126.519L141.257 126.515L141.257 126.512L141.257 126.509L141.257 126.505L141.257 126.502L141.257 126.499L141.257 126.496L141.257 126.492L141.257 126.489L141.257 126.486L141.257 126.483L141.257 126.479L141.257 126.476L141.257 126.473L141.257 126.47L141.257 126.467L141.257 126.463L141.257 126.46L141.257 126.457L141.257 126.454L141.257 126.451L141.257 126.448L141.257 126.445L141.257 126.442L141.257 126.439L141.257 126.435L141.257 126.432L141.257 126.429L141.257 126.426L141.257 126.423L141.257 126.42L141.257 126.417L141.257 126.414L141.257 126.411L141.257 126.408L141.257 126.405L141.257 126.402L141.257 126.399L141.257 126.396L141.257 126.393L141.257 126.39L141.257 126.387L141.257 126.384L141.257 126.382L141.257 126.379L141.257 126.376L141.257 126.373L141.257 126.37L141.257 126.367L141.257 126.364L141.257 126.361L141.257 126.359L141.257 126.356L141.257 126.353L141.257 126.35L141.257 126.347L141.257 126.345L141.257 126.342L141.257 126.339L141.257 126.336L141.257 126.334L141.257 126.331L141.257 126.328L141.257 126.325L141.257 126.323L141.257 126.32L141.257 126.317L141.257 126.315L141.257 126.312L141.257 126.309L141.257 126.307L141.257 126.304C141.246 121.927 140.023 117.539 137.379 114.202C134.689 110.808 130.627 108.637 125.314 108.65C115.571 108.674 108.986 116.435 109.008 125.486C109.02 130.46 110.784 134.685 113.898 137.72C116.999 140.741 121.303 142.454 126.195 142.686L126.245 142.688L126.295 142.688C131.871 142.675 136.435 140.119 139.455 136.577L140.722 135.092L139.268 133.79L135.661 130.56L139.267 130.551ZM122.226 130.592L131.237 130.57C129.64 131.914 128.097 132.407 126.269 132.411C124.602 132.415 123.201 131.782 122.226 130.592ZM125.34 118.927C126.59 118.924 127.522 119.373 128.208 120.091C128.499 120.396 128.76 120.766 128.98 121.196L121.81 121.213C122.066 120.671 122.347 120.252 122.647 119.935C123.223 119.323 124.013 118.931 125.34 118.927Z" stroke="black" stroke-opacity="0.17" stroke-width="4"/>
<path d="M151.359 124.934L141.91 111.058L150.877 111.036L156.278 119.542L161.189 111.011L169.708 110.99L159.878 124.913L170.227 139.684L161.26 139.706L155.409 130.753L149.602 139.734L141.083 139.755L151.359 124.934Z" fill="white"/>
<path d="M151.282 140.82L155.418 134.423L159.585 140.8L160.179 141.709L161.264 141.706L170.232 141.684L174.063 141.675L171.865 138.536L162.323 124.918L171.342 112.143L173.575 108.981L169.703 108.99L161.184 109.011L160.031 109.014L159.456 110.013L156.194 115.679L152.565 109.964L151.974 109.033L150.872 109.036L141.905 109.058L138.134 109.067L140.257 112.184L148.933 124.924L139.44 138.616L137.257 141.765L141.088 141.755L149.607 141.734L150.692 141.732L151.282 140.82Z" stroke="black" stroke-opacity="0.17" stroke-width="4"/>
<path d="M176.484 131.598L176.451 118.147L172.864 118.156L172.847 110.982L176.434 110.973L176.416 103.8L184.487 103.78L184.504 110.954L191.23 110.937L191.247 118.111L184.522 118.127L184.551 130.233C184.556 132.026 185.455 132.921 187.248 132.917C188.593 132.913 189.937 132.462 191.281 132.01L191.298 138.735C189.506 139.637 187.715 140.538 185.025 140.544C180.092 140.108 176.501 138.323 176.484 131.598Z" fill="white"/>
<path d="M186.551 130.228L186.527 120.122L191.252 120.111L193.252 120.106L193.247 118.106L193.23 110.932L193.225 108.932L191.225 108.937L186.499 108.949L186.487 103.775L186.482 101.775L184.482 101.78L176.411 101.8L174.411 101.804L174.416 103.804L174.429 108.978L172.842 108.982L170.842 108.987L170.847 110.987L170.864 118.161L170.869 120.161L172.869 120.156L174.456 120.152L174.484 131.603C174.493 135.32 175.502 138.085 177.586 139.928C179.59 141.701 182.253 142.307 184.849 142.536L184.939 142.544L185.03 142.544C188.193 142.536 190.34 141.456 192.134 140.553L192.197 140.522L193.301 139.967L193.298 138.731L193.281 132.005L193.274 129.23L190.644 130.114C189.233 130.588 188.205 130.914 187.243 130.917C186.858 130.918 186.693 130.856 186.642 130.829C186.615 130.778 186.552 130.613 186.551 130.228ZM186.623 130.817C186.623 130.817 186.626 130.819 186.63 130.822C186.625 130.819 186.623 130.818 186.623 130.817ZM186.649 130.841C186.652 130.845 186.654 130.848 186.654 130.848C186.654 130.848 186.652 130.846 186.649 130.841Z" stroke="black" stroke-opacity="0.17" stroke-width="4"/>
<path d="M4.00671 50.7686L12.0772 50.7488L12.1124 65.0963C13.9003 62.8501 16.585 60.6017 20.6202 60.5918C26.8973 60.5765 30.494 64.6029 30.5105 71.3283L30.5567 90.1595L22.4862 90.1792L22.4466 74.0383C22.4367 70.003 20.6389 68.214 17.5004 68.2217C14.3619 68.2293 12.5728 70.0272 12.5827 74.0624L12.6222 90.2034L4.55176 90.2232L4.45508 50.7675L4.00671 50.7686Z" fill="white"/>
<path d="M14.0772 50.7439L14.0723 48.7439L12.0723 48.7488L6.45017 48.7626L4.45018 48.7675L4.00181 48.7686L4.00671 50.7686L2.45508 50.7724L2.55177 90.2281L2.55667 92.2281L4.55666 92.2232L12.6272 92.2034L14.6271 92.1985L14.6222 90.1985L14.5827 74.0575C14.5784 72.2944 14.973 71.3963 15.3638 70.9513C15.7132 70.5533 16.3182 70.2246 17.5053 70.2216C18.6923 70.2187 19.299 70.5445 19.6503 70.9408C20.0432 71.3839 20.4423 72.28 20.4466 74.0432L20.4862 90.1841L20.4911 92.1841L22.4911 92.1792L30.5616 92.1594L32.5616 92.1545L32.5567 90.1546L32.5105 71.3234C32.5014 67.6215 31.5045 64.3982 29.3897 62.0833C27.2505 59.7418 24.1988 58.5831 20.6153 58.5918C17.9759 58.5983 15.8294 59.4054 14.1012 60.5381L14.0772 50.7439Z" stroke="black" stroke-opacity="0.17" stroke-width="4"/>
<path d="M35.4678 81.6284C35.4524 75.3513 40.3767 72.2007 47.1021 72.1842C49.7922 72.1776 52.0351 72.6205 54.2791 73.5117L54.278 73.0634C54.2693 69.4765 52.0231 67.6885 47.9878 67.6984C44.8493 67.7061 42.6086 68.16 39.9206 69.0633L37.6634 62.7917C40.7987 61.439 43.935 60.5345 48.867 60.5225C53.3506 60.5115 56.4924 61.8489 58.7386 63.6368C60.9859 65.8731 61.8903 69.0094 61.9002 73.0447L61.9408 89.634L53.8703 89.6538L53.8626 86.5153C52.0747 88.7615 48.9395 90.1142 45.3526 90.123C39.9734 90.5846 35.4821 87.457 35.4678 81.6284ZM54.2945 79.7888L54.2912 78.4437C52.945 77.9986 51.1505 77.5547 48.9087 77.5601C45.3218 77.5689 43.0833 78.9195 43.0899 81.6097C43.0954 83.8515 44.8921 85.1922 47.5823 85.1856C52.0648 84.7262 54.3022 82.9273 54.2945 79.7888Z" fill="white"/>
<path d="M51.3583 70.5651C51.3613 70.5675 51.3642 70.57 51.3671 70.5725C50.0226 70.3098 48.6194 70.1805 47.0972 70.1842C43.4569 70.1931 40.0707 71.0467 37.5463 72.9667C34.9492 74.9421 33.4586 77.9051 33.4678 81.6333C33.4763 85.0998 34.838 87.928 37.1409 89.7898C39.3888 91.6071 42.3619 92.3687 45.4403 92.1226C47.7548 92.1051 49.9772 91.5912 51.8727 90.6211L51.8752 91.6587L53.8752 91.6538L61.9457 91.634L63.9457 91.6291L63.9408 89.6291L63.9002 73.0398C63.8896 68.7329 62.9231 64.9794 60.1493 62.2191L60.0708 62.141L59.9841 62.072C57.371 59.992 53.7847 58.5104 48.8621 58.5225C43.6252 58.5353 40.2217 59.5097 36.8711 60.9554L35.145 61.7002L35.7816 63.469L38.0388 69.7406L38.7018 71.5828L40.5577 70.9591C43.0719 70.1142 45.0987 69.7055 47.9927 69.6984C49.7541 69.6941 50.7889 70.0879 51.3583 70.5651ZM48.9136 79.5601C50.2066 79.557 51.3303 79.7235 52.2922 79.9516C52.2617 80.8859 51.9347 81.4783 51.369 81.9332C50.6889 82.48 49.4783 82.9683 47.482 83.1851C46.5016 83.172 45.8879 82.9205 45.5611 82.6651C45.277 82.443 45.0912 82.1359 45.0899 81.6048C45.0882 80.9108 45.328 80.5338 45.7652 80.2408C46.314 79.873 47.3216 79.564 48.9136 79.5601Z" stroke="black" stroke-opacity="0.17" stroke-width="4"/>
<path d="M69.0454 61.3695L77.1159 61.3497L77.1258 65.385C78.9126 62.6904 82.0468 60.8893 86.082 60.8794C92.8074 60.8629 99.0976 66.2279 99.1207 75.6434C99.1438 85.059 92.8799 90.4547 86.1545 90.4712C81.6709 90.4822 78.9764 88.6953 77.1763 86.0095L77.2071 98.5636L69.1366 98.5834L69.0454 61.3695ZM91.4986 75.6621C91.4865 70.7301 88.3403 67.5993 84.305 67.6092C80.2698 67.6191 77.139 70.7653 77.1511 75.6973C77.1631 80.6292 80.3094 83.76 84.3446 83.7502C88.3798 83.7403 91.5107 80.5941 91.4986 75.6621Z" fill="white"/>
<path d="M69.0405 59.3695L67.0405 59.3744L67.0454 61.3744L67.1366 98.5883L67.1415 100.588L69.1415 100.583L77.212 100.564L79.212 100.559L79.2071 98.5587L79.1879 90.7136C79.3593 90.8179 79.535 90.9184 79.7152 91.0149C81.5131 91.9773 83.6443 92.4773 86.1594 92.4712C94.0741 92.4518 101.146 86.072 101.121 75.6385C101.095 65.205 93.9918 58.86 86.0771 58.8794C83.4258 58.8859 81.0615 59.5687 79.1145 60.7602L79.111 59.3448L77.111 59.3497L69.0405 59.3695ZM84.3099 69.6092C85.7878 69.6056 87.0423 70.1671 87.942 71.1402C88.8472 72.1193 89.4936 73.6294 89.4986 75.667C89.5036 77.7046 88.8646 79.2178 87.9642 80.2014C87.0693 81.1789 85.8175 81.7465 84.3397 81.7502C82.8619 81.7538 81.6073 81.1923 80.7077 80.2192C79.8024 79.24 79.156 77.73 79.1511 75.6924C79.1461 73.6547 79.785 72.1415 80.6855 71.1579C81.5804 70.1804 82.8321 69.6128 84.3099 69.6092Z" stroke="black" stroke-opacity="0.17" stroke-width="4"/>
<path d="M105.363 61.2806L113.433 61.2609L113.443 65.2961C115.23 62.6015 118.364 60.8004 122.399 60.7905C129.125 60.774 135.415 66.139 135.438 75.5546C135.461 84.9701 129.197 90.3658 122.472 90.3823C117.988 90.3933 115.293 88.6064 113.493 85.9207L113.524 98.4748L105.454 98.4945L105.363 61.2806ZM127.816 75.5732C127.804 70.6413 124.657 67.5104 120.622 67.5203C116.587 67.5302 113.456 70.6764 113.468 75.6084C113.48 80.5404 116.626 83.6712 120.662 83.6613C124.697 83.6514 127.828 80.5052 127.816 75.5732Z" fill="white"/>
<path d="M105.358 59.2806L103.358 59.2855L103.363 61.2855L103.454 98.4994L103.459 100.499L105.459 100.495L113.529 100.475L115.529 100.47L115.524 98.4699L115.505 90.6247C115.676 90.7291 115.852 90.8296 116.032 90.926C117.83 91.8884 119.961 92.3885 122.477 92.3823C130.391 92.3629 137.463 85.9831 137.438 75.5497C137.412 65.1162 130.309 58.7711 122.394 58.7905C119.743 58.797 117.379 59.4799 115.432 60.6713L115.428 59.256L113.428 59.2609L105.358 59.2806ZM120.627 69.5203C122.105 69.5167 123.359 70.0782 124.259 71.0513C125.164 72.0304 125.811 73.5405 125.816 75.5781C125.821 77.6158 125.182 79.129 124.281 80.1125C123.386 81.09 122.135 81.6577 120.657 81.6613C119.179 81.6649 117.924 81.1034 117.025 80.1303C116.12 79.1512 115.473 77.6411 115.468 75.6035C115.463 73.5659 116.102 72.0526 117.003 71.0691C117.898 70.0916 119.149 69.5239 120.627 69.5203Z" stroke="black" stroke-opacity="0.17" stroke-width="4"/>
<path d="M140.37 75.5425C140.35 67.472 146.162 60.7323 154.681 60.7114C164.097 60.6884 168.599 68.2995 168.619 76.37C168.62 76.8183 168.622 77.7151 168.624 78.6118L148.448 78.6612C149.354 82.2459 152.049 84.4811 155.636 84.4723C158.326 84.4657 160.566 83.5635 162.802 81.3162L167.296 85.3405C164.613 88.4856 160.583 90.7373 155.651 90.7494C146.683 90.323 140.392 84.5097 140.37 75.5425ZM160.989 73.2501C160.532 69.6643 158.283 66.9797 154.697 66.9885C151.11 66.9973 149.322 69.2435 148.435 73.2809L160.989 73.2501Z" fill="white"/>
<path d="M168.629 80.6118L170.629 80.6069L170.624 78.6069L170.624 78.6016L170.624 78.5964L170.624 78.5911L170.624 78.5859L170.624 78.5806L170.624 78.5753L170.624 78.5701L170.624 78.5648L170.624 78.5596L170.624 78.5543L170.624 78.5491L170.624 78.5438L170.624 78.5386L170.624 78.5333L170.624 78.5281L170.624 78.5228L170.624 78.5176L170.624 78.5123L170.624 78.5071L170.624 78.5018L170.624 78.4966L170.624 78.4913L170.624 78.4861L170.624 78.4808L170.624 78.4756L170.624 78.4703L170.624 78.4651L170.624 78.4598L170.624 78.4546L170.624 78.4493L170.624 78.4441L170.624 78.4388L170.624 78.4336L170.624 78.4284L170.624 78.4231L170.624 78.4179L170.624 78.4126L170.624 78.4074L170.624 78.4022L170.624 78.3969L170.624 78.3917L170.624 78.3864L170.624 78.3812L170.624 78.376L170.624 78.3707L170.624 78.3655L170.624 78.3603L170.624 78.355L170.624 78.3498L170.624 78.3446L170.624 78.3394L170.624 78.3341L170.624 78.3289L170.624 78.3237L170.624 78.3184L170.624 78.3132L170.624 78.308L170.624 78.3028L170.623 78.2976L170.623 78.2923L170.623 78.2871L170.623 78.2819L170.623 78.2767L170.623 78.2715L170.623 78.2663L170.623 78.2611L170.623 78.2558L170.623 78.2506L170.623 78.2454L170.623 78.2402L170.623 78.235L170.623 78.2298L170.623 78.2246L170.623 78.2194L170.623 78.2142L170.623 78.209L170.623 78.2038L170.623 78.1986L170.623 78.1934L170.623 78.1882L170.623 78.1831L170.623 78.1779L170.623 78.1727L170.623 78.1675L170.623 78.1623L170.623 78.1571L170.623 78.152L170.623 78.1468L170.623 78.1416L170.623 78.1364L170.623 78.1313L170.623 78.1261L170.623 78.1209L170.623 78.1158L170.623 78.1106L170.623 78.1054L170.623 78.1003L170.623 78.0951L170.623 78.0899L170.623 78.0848L170.623 78.0796L170.623 78.0745L170.623 78.0693L170.623 78.0642L170.623 78.059L170.623 78.0539L170.623 78.0488L170.623 78.0436L170.623 78.0385L170.623 78.0334L170.623 78.0282L170.623 78.0231L170.623 78.018L170.623 78.0128L170.623 78.0077L170.623 78.0026L170.623 77.9975L170.623 77.9924L170.623 77.9873L170.623 77.9821L170.623 77.977L170.623 77.9719L170.623 77.9668L170.623 77.9617L170.623 77.9566L170.623 77.9515L170.623 77.9464L170.623 77.9413L170.623 77.9363L170.623 77.9312L170.623 77.9261L170.623 77.921L170.623 77.9159L170.623 77.9108L170.623 77.9058L170.623 77.9007L170.623 77.8956L170.623 77.8906L170.622 77.8855L170.622 77.8804L170.622 77.8754L170.622 77.8703L170.622 77.8653L170.622 77.8602L170.622 77.8552L170.622 77.8502L170.622 77.8451L170.622 77.8401L170.622 77.835L170.622 77.83L170.622 77.825L170.622 77.82L170.622 77.8149L170.622 77.8099L170.622 77.8049L170.622 77.7999L170.622 77.7949L170.622 77.7899L170.622 77.7849L170.622 77.7799L170.622 77.7749L170.622 77.7699L170.622 77.7649L170.622 77.7599L170.622 77.7549L170.622 77.75L170.622 77.745L170.622 77.74L170.622 77.735L170.622 77.7301L170.622 77.7251L170.622 77.7201L170.622 77.7152L170.622 77.7102L170.622 77.7053L170.622 77.7003L170.622 77.6954L170.622 77.6905L170.622 77.6855L170.622 77.6806L170.622 77.6757L170.622 77.6707L170.622 77.6658L170.622 77.6609L170.622 77.656L170.622 77.6511L170.622 77.6462L170.622 77.6413L170.622 77.6364L170.622 77.6315L170.622 77.6266L170.622 77.6217L170.622 77.6168L170.622 77.6119L170.622 77.6071L170.622 77.6022L170.622 77.5973L170.622 77.5925L170.622 77.5876L170.622 77.5828L170.622 77.5779L170.622 77.5731L170.622 77.5682L170.622 77.5634L170.622 77.5585L170.622 77.5537L170.622 77.5489L170.622 77.5441L170.622 77.5392L170.622 77.5344L170.622 77.5296L170.622 77.5248L170.622 77.52L170.622 77.5152L170.622 77.5104L170.622 77.5056L170.622 77.5008L170.622 77.4961L170.622 77.4913L170.622 77.4865L170.621 77.4817L170.621 77.477L170.621 77.4722L170.621 77.4675L170.621 77.4627L170.621 77.458L170.621 77.4532L170.621 77.4485L170.621 77.4438L170.621 77.439L170.621 77.4343L170.621 77.4296L170.621 77.4249L170.621 77.4202L170.621 77.4155L170.621 77.4108L170.621 77.4061L170.621 77.4014L170.621 77.3967L170.621 77.392L170.621 77.3874L170.621 77.3827L170.621 77.378L170.621 77.3734L170.621 77.3687L170.621 77.3641L170.621 77.3594L170.621 77.3548L170.621 77.3501L170.621 77.3455L170.621 77.3409L170.621 77.3363L170.621 77.3317L170.621 77.327L170.621 77.3224L170.621 77.3178L170.621 77.3132L170.621 77.3087L170.621 77.3041L170.621 77.2995L170.621 77.2949L170.621 77.2903L170.621 77.2858L170.621 77.2812L170.621 77.2767L170.621 77.2721L170.621 77.2676L170.621 77.263L170.621 77.2585L170.621 77.254L170.621 77.2495L170.621 77.2449L170.621 77.2404L170.621 77.2359L170.621 77.2314L170.621 77.2269L170.621 77.2225L170.621 77.218L170.621 77.2135L170.621 77.209L170.621 77.2046L170.621 77.2001L170.621 77.1956L170.621 77.1912L170.621 77.1868L170.621 77.1823L170.621 77.1779L170.621 77.1735L170.621 77.169L170.621 77.1646L170.621 77.1602L170.621 77.1558L170.621 77.1514L170.621 77.147L170.621 77.1426L170.621 77.1383L170.621 77.1339L170.621 77.1295L170.621 77.1252L170.621 77.1208L170.621 77.1165L170.621 77.1121L170.621 77.1078L170.621 77.1034L170.621 77.0991L170.621 77.0948L170.621 77.0905L170.621 77.0862L170.621 77.0819L170.621 77.0776L170.62 77.0733L170.62 77.069L170.62 77.0647L170.62 77.0605L170.62 77.0562L170.62 77.0519L170.62 77.0477L170.62 77.0435L170.62 77.0392L170.62 77.035L170.62 77.0308L170.62 77.0265L170.62 77.0223L170.62 77.0181L170.62 77.0139L170.62 77.0097L170.62 77.0055L170.62 77.0014L170.62 76.9972L170.62 76.993L170.62 76.9889L170.62 76.9847L170.62 76.9806L170.62 76.9764L170.62 76.9723L170.62 76.9682L170.62 76.9641L170.62 76.9599L170.62 76.9558L170.62 76.9517L170.62 76.9476L170.62 76.9436L170.62 76.9395L170.62 76.9354L170.62 76.9313L170.62 76.9273L170.62 76.9232L170.62 76.9192L170.62 76.9152L170.62 76.9111L170.62 76.9071L170.62 76.9031L170.62 76.8991L170.62 76.8951L170.62 76.8911L170.62 76.8871L170.62 76.8831L170.62 76.8791L170.62 76.8752L170.62 76.8712L170.62 76.8673L170.62 76.8633L170.62 76.8594L170.62 76.8554L170.62 76.8515L170.62 76.8476L170.62 76.8437L170.62 76.8398L170.62 76.8359L170.62 76.832L170.62 76.8281L170.62 76.8243L170.62 76.8204L170.62 76.8166L170.62 76.8127L170.62 76.8089L170.62 76.805L170.62 76.8012L170.62 76.7974L170.62 76.7936L170.62 76.7898L170.62 76.786L170.62 76.7822L170.62 76.7784L170.62 76.7746L170.62 76.7709L170.62 76.7671L170.62 76.7634L170.62 76.7596L170.62 76.7559L170.62 76.7522L170.62 76.7484L170.62 76.7447L170.62 76.741L170.62 76.7373L170.62 76.7336L170.62 76.73L170.62 76.7263L170.62 76.7226L170.62 76.719L170.62 76.7153L170.62 76.7117L170.62 76.7081L170.62 76.7044L170.62 76.7008L170.62 76.6972L170.62 76.6936L170.62 76.69L170.62 76.6865L170.62 76.6829L170.62 76.6793L170.62 76.6758L170.62 76.6722L170.62 76.6687L170.619 76.6651L170.619 76.6616L170.619 76.6581L170.619 76.6546L170.619 76.6511L170.619 76.6476L170.619 76.6441L170.619 76.6406L170.619 76.6372L170.619 76.6337L170.619 76.6303L170.619 76.6268L170.619 76.6234L170.619 76.62L170.619 76.6166L170.619 76.6132L170.619 76.6098L170.619 76.6064L170.619 76.603L170.619 76.5996L170.619 76.5963L170.619 76.5929L170.619 76.5896L170.619 76.5862L170.619 76.5829L170.619 76.5796L170.619 76.5763L170.619 76.573L170.619 76.5697L170.619 76.5664L170.619 76.5631L170.619 76.5599L170.619 76.5566L170.619 76.5533L170.619 76.5501L170.619 76.5469L170.619 76.5437L170.619 76.5404L170.619 76.5372L170.619 76.5341L170.619 76.5309L170.619 76.5277L170.619 76.5245L170.619 76.5214L170.619 76.5182L170.619 76.5151L170.619 76.512L170.619 76.5088L170.619 76.5057L170.619 76.5026L170.619 76.4995L170.619 76.4965L170.619 76.4934L170.619 76.4903L170.619 76.4873L170.619 76.4842L170.619 76.4812L170.619 76.4782L170.619 76.4751L170.619 76.4721L170.619 76.4691L170.619 76.4661L170.619 76.4632L170.619 76.4602L170.619 76.4572L170.619 76.4543L170.619 76.4513L170.619 76.4484L170.619 76.4455L170.619 76.4426L170.619 76.4397L170.619 76.4368L170.619 76.4339L170.619 76.431L170.619 76.4282L170.619 76.4253L170.619 76.4225L170.619 76.4196L170.619 76.4168L170.619 76.414L170.619 76.4112L170.619 76.4084L170.619 76.4056L170.619 76.4028L170.619 76.4001L170.619 76.3973L170.619 76.3946L170.619 76.3919L170.619 76.3891L170.619 76.3864L170.619 76.3837L170.619 76.381L170.619 76.3783L170.619 76.3757L170.619 76.373L170.619 76.3703L170.619 76.3677L170.619 76.3651C170.608 71.9878 169.385 67.6001 166.741 64.2635C164.051 60.8689 159.989 58.6984 154.676 58.7114C144.933 58.7353 138.348 66.4959 138.37 75.5474C138.382 80.5212 140.146 84.7465 143.26 87.7812C146.36 90.8022 150.665 92.5145 155.557 92.7471L155.606 92.7495L155.656 92.7494C161.233 92.7357 165.797 90.1795 168.817 86.6383L170.084 85.153L168.63 83.8506L165.023 80.6206L168.629 80.6118ZM151.588 80.6535L160.599 80.6314C159.002 81.9754 157.459 82.4678 155.631 82.4723C153.964 82.4764 152.562 81.8428 151.588 80.6535ZM154.701 68.9885C155.952 68.9854 156.884 69.4344 157.57 70.1524C157.861 70.457 158.122 70.8267 158.341 71.2566L151.172 71.2742C151.428 70.7322 151.709 70.3134 152.008 69.9959C152.585 69.3843 153.375 68.9917 154.701 68.9885Z" stroke="black" stroke-opacity="0.17" stroke-width="4"/>
<path d="M174.858 61.1105L182.929 61.0907L182.939 65.1259C184.727 62.8797 187.411 60.6313 191.446 60.6215C197.723 60.6061 201.32 64.6325 201.337 71.3579L201.383 90.1891L193.312 90.2088L193.273 74.0679C193.263 70.0326 191.465 68.2436 188.327 68.2513C185.188 68.259 183.399 70.0568 183.409 74.092L183.448 90.233L174.93 90.2539L174.858 61.1105Z" fill="white"/>
<path d="M174.853 59.1105L172.853 59.1154L172.858 61.1154L172.93 90.2588L172.935 92.2588L174.935 92.2539L183.453 92.233L185.453 92.2281L185.448 90.2281L185.409 74.0871C185.405 72.324 185.799 71.4259 186.19 70.9809C186.539 70.5829 187.144 70.2542 188.332 70.2513C189.519 70.2484 190.125 70.5741 190.477 70.9704C190.869 71.4135 191.269 72.3097 191.273 74.0728L191.312 90.2137L191.317 92.2137L193.317 92.2088L201.388 92.1891L203.388 92.1842L203.383 90.1842L203.337 71.353C203.328 67.6512 202.331 64.4278 200.216 62.1129C198.077 59.7714 195.025 58.6127 191.442 58.6215C188.802 58.6279 186.656 59.435 184.927 60.5677L184.924 59.0858L182.924 59.0907L174.853 59.1105Z" stroke="black" stroke-opacity="0.17" stroke-width="4"/>
<path d="M206.304 85.6934L209.878 80.3043C213.022 82.5384 216.163 83.8758 218.854 83.8692C221.095 83.8637 222.438 82.9637 222.435 81.6186C222.431 79.8251 219.739 79.3834 216.599 78.4943C212.56 77.1592 208.072 75.3767 208.058 69.548C208.044 63.7193 212.968 60.5687 218.797 60.5544C222.383 60.5457 226.422 61.8808 229.565 63.6666L226.441 69.503C223.746 67.7161 220.605 66.8271 218.812 66.8315C217.018 66.8359 215.676 67.7359 215.679 69.081C215.683 70.8744 218.375 71.3162 221.516 72.6536C225.555 73.9888 230.043 75.7712 230.056 81.1515C230.071 87.4286 225.147 90.5792 218.87 90.5946C214.385 90.1572 209.899 88.8231 206.304 85.6934Z" fill="white"/>
<path d="M204.637 84.5881L203.668 86.0499L204.991 87.2018C209.007 90.699 213.948 92.124 218.676 92.5851L218.775 92.5948L218.875 92.5946C222.318 92.5861 225.594 91.7206 228.055 89.7969C230.579 87.8237 232.065 84.871 232.056 81.1466C232.048 77.7813 230.589 75.4369 228.535 73.8156C226.622 72.3061 224.211 71.4396 222.222 70.7805C221.461 70.459 220.729 70.1879 220.093 69.9521C220.054 69.9374 220.014 69.9227 219.975 69.9082C219.265 69.6447 218.715 69.4371 218.273 69.2287C218.092 69.1438 217.957 69.0716 217.857 69.0125C218.046 68.923 218.363 68.8326 218.817 68.8315C220.142 68.8282 222.902 69.5565 225.335 71.1698L227.167 72.3843L228.204 70.4469L231.328 64.6105L232.249 62.8911L230.553 61.9277C227.196 60.0203 222.816 58.5446 218.792 58.5544C215.544 58.5624 212.395 59.4416 210.011 61.2903C207.573 63.1804 206.049 66.006 206.058 69.5529C206.067 73.084 207.475 75.5436 209.548 77.2501C211.499 78.8571 213.969 79.7313 215.971 80.3933L216.012 80.4069L216.054 80.4187C216.571 80.565 217.041 80.6915 217.471 80.8071C218.487 81.0803 219.276 81.2927 219.921 81.5625C220.019 81.6033 220.102 81.6409 220.173 81.6749C219.912 81.7729 219.485 81.8676 218.849 81.8692C216.764 81.8743 214.036 80.8059 211.036 78.674L209.352 77.4775L208.211 79.1989L204.637 84.5881ZM217.591 68.817C217.593 68.8169 217.605 68.8272 217.619 68.8482C217.596 68.8276 217.589 68.8171 217.591 68.817ZM217.655 69.1472C217.655 69.1477 217.655 69.1479 217.655 69.1479L217.655 69.1472ZM220.536 81.9026C220.533 81.9029 220.519 81.8912 220.501 81.8665C220.53 81.8899 220.539 81.9023 220.536 81.9026ZM220.479 81.5076C220.479 81.5067 220.48 81.5063 220.48 81.5063L220.479 81.5076Z" stroke="black" stroke-opacity="0.17" stroke-width="4"/>
</svg>
