<svg width="27" height="27" viewBox="0 0 27 27" fill="none" xmlns="http://www.w3.org/2000/svg">
<path d="M23.706 26.73H3.294C1.6227 26.73 0.269997 25.3773 0.269997 23.706V4.80866C0.269997 3.13466 1.6227 1.78196 3.294 1.78196H6.318V1.40396C6.318 0.777559 6.8256 0.269958 7.452 0.269958C8.0784 0.269958 8.586 0.777559 8.586 1.40396V1.78196H18.414V1.40396C18.414 0.777559 18.9216 0.269958 19.548 0.269958C20.1744 0.269958 20.682 0.777559 20.682 1.40396V1.78196H23.706C25.3773 1.78196 26.73 3.13466 26.73 4.80866V23.706C26.73 25.3773 25.3773 26.73 23.706 26.73ZM24.462 5.56196C24.462 4.72766 23.7843 4.04996 22.95 4.04996H20.682V4.42796C20.682 5.05436 20.1744 5.56196 19.548 5.56196C18.9216 5.56196 18.414 5.05436 18.414 4.42796V4.04996H8.586V4.42796C8.586 5.05436 8.0784 5.56196 7.452 5.56196C6.8256 5.56196 6.318 5.05436 6.318 4.42796V4.04996H4.05C3.2157 4.04996 2.538 4.72766 2.538 5.56196V22.95C2.538 23.7843 3.2157 24.462 4.05 24.462H22.95C23.7843 24.462 24.462 23.7843 24.462 22.95V5.56196ZM13.4541 19.6722C13.4541 19.6722 13.4541 19.6749 13.4541 19.6722C13.0086 20.1177 12.2931 20.1177 11.8503 19.6749L7.6113 15.4359C7.1685 14.9931 7.1685 14.2749 7.6113 13.8321C8.0541 13.3893 8.7723 13.3893 9.2151 13.8321L12.6522 17.2692L18.5409 11.3805C18.9837 10.9377 19.7019 10.9377 20.1447 11.3805C20.5875 11.8233 20.5875 12.5415 20.1447 12.9843L13.4541 19.6722Z" fill="black"/>
</svg>
