<svg width="207" height="207" viewBox="0 0 207 207" fill="none" xmlns="http://www.w3.org/2000/svg">
<g filter="url(#filter0_d)">
<circle cx="103.876" cy="99.8638" r="99" fill="url(#paint0_linear)"/>
</g>
<g clip-path="url(#clip0)">
<path d="M75.9319 167.364C70.0116 167.364 65.1394 165.579 61.4569 162.095C57.746 158.583 55.8765 153.768 55.8765 147.819C55.8765 145.496 55.9614 143.202 56.1031 140.993C56.273 138.727 56.5846 136.291 57.0379 133.713C57.4911 131.107 58.1143 128.643 58.8225 126.405C59.559 124.082 60.5787 121.788 61.8251 119.607C63.0998 117.341 64.6295 115.358 66.3291 113.743C68.0854 112.044 70.2666 110.684 72.7593 109.693C75.2521 108.701 78.0281 108.192 81.0025 108.192C82.1072 108.192 83.1836 108.673 85.3365 110.061C86.6962 110.939 88.2825 111.987 90.0671 113.12C91.6251 114.112 93.6929 115.018 96.2707 115.868C98.7918 116.689 101.341 117.086 103.891 117.086C106.412 117.086 108.989 116.661 111.511 115.868C114.088 115.046 116.185 114.112 117.714 113.12C119.555 111.959 121.142 110.911 122.445 110.061C124.569 108.673 125.674 108.192 126.779 108.192C129.753 108.192 132.501 108.701 135.022 109.693C137.515 110.684 139.696 112.044 141.452 113.743C143.152 115.358 144.653 117.341 145.956 119.607C147.203 121.788 148.222 124.082 148.959 126.405C149.667 128.643 150.29 131.107 150.743 133.713C151.197 136.291 151.508 138.755 151.678 140.993C151.82 143.174 151.905 145.468 151.905 147.819C151.905 153.768 150.035 158.583 146.296 162.095C142.614 165.579 137.741 167.364 131.821 167.364H75.9319ZM80.4643 114.197C78.453 114.253 76.6118 114.593 74.9688 115.245C73.1842 115.953 71.6829 116.888 70.4648 118.049C69.1901 119.267 68.0287 120.768 67.0373 122.553C65.9892 124.394 65.1677 126.292 64.5445 128.218C63.893 130.201 63.3548 132.41 62.9582 134.761C62.5333 137.14 62.25 139.378 62.1084 141.418C61.9668 143.485 61.8818 145.638 61.8818 147.819C61.8818 152.125 63.0998 155.354 65.6209 157.761C68.1704 160.197 71.5696 161.387 75.9603 161.387H131.821C136.212 161.387 139.611 160.197 142.16 157.761C144.681 155.382 145.899 152.125 145.899 147.819C145.899 145.61 145.815 143.457 145.673 141.418C145.531 139.378 145.248 137.14 144.823 134.761C144.398 132.41 143.86 130.229 143.237 128.218C142.614 126.292 141.792 124.394 140.744 122.553C139.753 120.796 138.591 119.267 137.316 118.049C136.098 116.888 134.597 115.953 132.812 115.245C131.169 114.593 129.328 114.225 127.317 114.197H127.204L127.119 114.253C126.864 114.395 126.439 114.622 125.731 115.075C124.371 115.953 122.813 116.973 120.943 118.162C118.961 119.437 116.411 120.57 113.352 121.561C110.236 122.581 107.063 123.091 103.891 123.091C100.746 123.091 97.5454 122.581 94.4294 121.561C91.3701 120.57 88.8207 119.437 86.8378 118.162C85.1665 117.086 83.5519 116.066 82.0506 115.075C81.3424 114.622 80.9175 114.367 80.6625 114.253L80.5776 114.197H80.4643Z" fill="white"/>
<path d="M129.13 97.3994C128.96 97.5694 128.79 97.7393 128.648 97.881C124.768 101.762 121.085 105.246 117.403 108.531C114.003 111.534 109.981 113.347 105.76 113.772C101.681 114.197 97.687 113.233 93.8629 110.967C90.5203 108.985 87.8859 106.435 85.3364 103.943C83.4952 102.158 81.3423 100.034 79.1612 97.881C76.98 95.6999 74.8555 93.5188 73.0709 91.6777C70.5781 89.1283 68.0287 86.4941 66.0458 83.1516C63.7796 79.3277 62.8449 75.3338 63.2414 71.2549C63.6663 67.0344 65.4793 63.0121 68.4819 59.613C71.7395 55.9307 75.2237 52.2484 79.1328 48.3678C83.0136 44.4871 86.6961 41.0031 90.3786 37.7173C93.7779 34.7148 97.8003 32.902 102.021 32.4771C106.1 32.0522 110.094 33.0153 113.918 35.2813C117.261 37.2641 119.895 39.8134 122.445 42.3061C124.286 44.0906 126.439 46.215 128.62 48.3678C130.801 50.5488 132.897 52.7299 134.682 54.5427C137.175 57.0921 139.724 59.7263 141.707 63.0688C143.973 66.8927 144.908 70.8866 144.511 74.9655C144.087 79.186 142.274 83.2083 139.271 86.6074C136.155 90.1764 132.812 93.6888 129.13 97.3994ZM124.768 94.0287C128.592 90.233 131.991 86.6074 135.192 83.01C137.458 80.4324 138.761 77.5715 139.101 74.4557C139.384 71.5665 138.704 68.7056 137.033 65.9013C135.39 63.1254 133.039 60.7177 130.773 58.395C128.988 56.5822 126.892 54.4294 124.739 52.2484C122.586 50.0956 120.434 47.9995 118.592 46.215C116.269 43.949 113.862 41.6263 111.086 39.955C108.281 38.2838 105.42 37.604 102.531 37.8873C99.4149 38.1988 96.5256 39.5302 93.9762 41.7962C90.3503 44.997 86.7528 48.3961 82.957 52.22C79.1612 56.044 75.7619 59.6414 72.561 63.2387C70.2948 65.8163 68.9918 68.6772 68.6519 71.7931C68.3686 74.6823 69.0485 77.5432 70.7197 80.3474C72.3627 83.1233 74.7138 85.531 76.98 87.8537C78.7646 89.6665 80.8608 91.8193 83.0136 94.0004C85.1665 96.1531 87.3193 98.2492 89.1323 100.034C91.4551 102.3 93.8629 104.622 96.6389 106.294C99.4433 107.965 102.304 108.645 105.194 108.361C108.31 108.05 111.199 106.719 113.748 104.453C117.346 101.252 120.972 97.8243 124.768 94.0287ZM115.873 85.3044C109.216 91.9609 98.3668 91.9609 91.6817 85.3044C85.0248 78.6479 85.0248 67.7991 91.6817 61.1143C98.3385 54.4578 109.188 54.4578 115.873 61.1143C122.558 67.7708 122.53 78.6479 115.873 85.3044ZM95.5625 64.9949C91.0302 69.527 91.0302 76.8917 95.5625 81.4238C100.095 85.9559 107.46 85.9559 111.992 81.4238C116.524 76.8917 116.524 69.527 111.992 64.9949C107.46 60.4628 100.095 60.4628 95.5625 64.9949ZM101.256 43.8073C99.6415 45.4219 99.6415 47.9995 101.256 49.6141C102.871 51.2286 105.449 51.2286 107.063 49.6141C108.678 47.9995 108.678 45.4219 107.063 43.8073C105.477 42.2211 102.871 42.2211 101.256 43.8073Z" fill="white"/>
</g>
<defs>
<filter id="filter0_d" x="0.876343" y="0.863831" width="206" height="206" filterUnits="userSpaceOnUse" color-interpolation-filters="sRGB">
<feFlood flood-opacity="0" result="BackgroundImageFix"/>
<feColorMatrix in="SourceAlpha" type="matrix" values="0 0 0 0 0 0 0 0 0 0 0 0 0 0 0 0 0 0 127 0"/>
<feOffset dy="4"/>
<feGaussianBlur stdDeviation="2"/>
<feColorMatrix type="matrix" values="0 0 0 0 0 0 0 0 0 0 0 0 0 0 0 0 0 0 0.25 0"/>
<feBlend mode="normal" in2="BackgroundImageFix" result="effect1_dropShadow"/>
<feBlend mode="normal" in="SourceGraphic" in2="effect1_dropShadow" result="shape"/>
</filter>
<linearGradient id="paint0_linear" x1="26.3923" y1="161.256" x2="187.118" y2="44.5843" gradientUnits="userSpaceOnUse">
<stop stop-color="#FCBC3B"/>
<stop offset="0.286458" stop-color="#F95556"/>
<stop offset="0.541667" stop-color="#EC2D93"/>
<stop offset="0.791667" stop-color="#C432AC"/>
<stop offset="1" stop-color="#7D3DC4"/>
</linearGradient>
<clipPath id="clip0">
<rect x="55.8765" y="32.3638" width="96" height="135" fill="white"/>
</clipPath>
</defs>
</svg>
