<svg width="19" height="19" viewBox="0 0 19 19" fill="none" xmlns="http://www.w3.org/2000/svg">
<path d="M4.57907 14.5451H5.22047V14.6741C5.22047 15.8591 6.27082 16.8228 7.56181 16.8228H8.60025H13.556H14.0015H14.4209C15.7122 16.8228 16.7626 15.8591 16.7626 14.6741V6.60373C16.7626 5.41908 15.7122 4.45498 14.4209 4.45498H13.7795V4.32603C13.7795 3.14094 12.7295 2.17725 11.4381 2.17725H10.5733H5.61751H4.57907C3.28808 2.17725 2.23773 3.14098 2.23773 4.32603V12.3964C2.23773 13.581 3.28808 14.5451 4.57907 14.5451ZM14.4209 5.15839C15.2909 5.15839 15.996 5.8055 15.996 6.60373V14.6741C15.996 15.4723 15.2909 16.1195 14.4209 16.1195H14.0016H13.556H8.60028H7.56185C6.69216 16.1195 5.98711 15.4723 5.98711 14.6741V14.5451V13.8417V6.60373C5.98711 5.80547 6.69216 5.15839 7.56185 5.15839H8.60028H13.0132H13.556H13.7795H14.4209ZM3.00393 4.32603C3.00393 3.52777 3.70897 2.88065 4.57907 2.88065H5.61751H10.5733H11.4381C12.3082 2.88065 13.0132 3.52777 13.0132 4.32603V4.45498H8.60028H7.56185C6.27085 4.45498 5.22051 5.41908 5.22051 6.60373V13.8417H4.57907C3.70897 13.8417 3.00393 13.1942 3.00393 12.3964V4.32603Z" fill="black"/>
<path d="M7.29957 7.34894C7.13121 7.34894 6.9949 7.48528 6.9949 7.65364C6.9949 7.82197 7.13121 7.95831 7.29957 7.95831H13.394C13.5623 7.95831 13.6987 7.82197 13.6987 7.65364C13.6987 7.48528 13.5623 7.34894 13.394 7.34894H7.29957Z" fill="black"/>
<path d="M8.26245 9.72396C8.26245 9.89232 8.3992 10.0287 8.56756 10.0287H14.2784C14.4468 10.0287 14.5836 9.89232 14.5836 9.72396C14.5836 9.55559 14.4468 9.41888 14.2784 9.41888H8.56756C8.3992 9.41888 8.26245 9.55559 8.26245 9.72396Z" fill="black"/>
<path d="M12.9567 11.7939C12.9567 11.6256 12.8203 11.4893 12.652 11.4893H7.29957C7.13121 11.4893 6.9949 11.6256 6.9949 11.7939C6.9949 11.9623 7.13121 12.0991 7.29957 12.0991H12.652C12.8203 12.0991 12.9567 11.9623 12.9567 11.7939Z" fill="black"/>
<path d="M14.2785 13.5596H9.26283C9.0945 13.5596 8.95816 13.6959 8.95816 13.8643C8.95816 14.0326 9.0945 14.1689 9.26283 14.1689H14.2785C14.4469 14.1689 14.5837 14.0326 14.5837 13.8643C14.5836 13.6959 14.4469 13.5596 14.2785 13.5596Z" fill="black"/>
</svg>
