<svg width="769" height="980" viewBox="0 0 769 980" fill="none" xmlns="http://www.w3.org/2000/svg">
<path d="M358.638 0.570557C330.738 3.17053 304.938 7.47052 284.238 13.1705C232.538 27.2705 182.238 52.7706 142.938 84.7706C129.138 96.0706 98.5378 125.971 88.3378 138.071C39.8378 195.771 8.03782 271.971 1.13782 346.571C-0.362177 362.271 -0.362177 410.271 1.03782 425.571C5.43782 471.971 19.3378 520.471 41.1378 565.071C67.8378 619.771 103.138 668.971 172.538 748.071C243.538 828.971 380.538 979.571 383.238 979.571C386.638 979.571 570.038 763.771 623.738 696.571C661.038 649.871 686.738 614.171 706.438 581.671C741.538 523.471 761.538 467.271 767.238 411.071C768.638 396.571 768.638 362.171 767.138 347.071C756.038 232.871 693.638 129.071 597.638 64.8705C546.138 30.4705 486.138 8.97052 422.338 1.97052C405.138 0.170532 371.838 -0.629456 358.638 0.570557ZM438.438 208.671C453.438 210.071 458.138 213.071 468.138 227.671C475.738 238.671 485.938 249.771 491.638 253.171C497.638 256.671 506.538 257.471 537.638 257.571C568.738 257.571 581.638 258.671 587.838 261.671C590.638 262.971 593.838 265.971 596.838 269.871L601.638 275.971L601.938 380.071C602.438 488.471 601.938 506.771 598.338 516.271C597.038 519.871 594.938 522.371 589.738 526.771L582.838 532.571H384.538H186.138L180.738 529.071C170.538 522.571 166.238 515.071 165.038 501.671C164.038 489.871 164.038 373.771 165.038 318.971C165.738 280.471 165.838 278.771 168.038 274.371C170.838 268.471 177.738 262.071 182.738 260.571C187.838 259.171 211.038 257.671 229.138 257.571C250.838 257.471 266.838 256.07 273.738 253.471C281.638 250.471 287.938 244.271 299.038 228.771C311.138 211.771 315.638 208.871 332.138 207.571C344.338 206.571 425.538 207.471 438.438 208.671Z" fill="white"/>
<path d="M370.638 293.671C346.238 297.171 321.538 312.071 305.938 332.571C299.538 340.871 291.838 356.871 289.138 367.071C286.138 378.371 285.438 394.671 287.538 406.371C291.038 426.671 300.138 444.371 314.638 459.071C328.438 473.171 341.438 480.871 359.238 485.771C370.938 488.971 395.738 488.971 407.338 485.771C443.338 475.871 469.938 449.671 478.338 415.771C481.238 404.071 481.538 376.771 478.738 366.071C476.338 356.771 468.438 340.571 462.338 332.471C441.038 304.371 404.238 288.871 370.638 293.671ZM399.638 328.071C438.238 336.171 460.638 383.371 442.938 419.271C439.138 426.971 429.238 437.971 420.438 444.271C393.838 463.171 357.438 458.771 335.238 433.871C329.038 426.871 322.638 414.971 320.638 406.471C318.738 398.071 318.738 384.271 320.738 375.271C325.138 355.671 343.038 335.971 362.938 328.971C368.538 326.971 371.638 326.571 381.138 326.571C387.438 326.571 395.838 327.271 399.638 328.071Z" fill="white"/>
</svg>
