<svg width="27" height="26" viewBox="0 0 27 26" fill="none" xmlns="http://www.w3.org/2000/svg">
<path d="M12.3908 11.8813C12.2439 12.0281 12.1273 12.2024 12.0478 12.3943C11.9683 12.5862 11.9273 12.7918 11.9272 12.9995C11.9272 13.2073 11.9681 13.4129 12.0475 13.6048C12.127 13.7968 12.2434 13.9711 12.3903 14.118C12.5371 14.2651 12.7115 14.3817 12.9035 14.4613C13.0954 14.5409 13.3012 14.5819 13.509 14.582C13.7168 14.582 13.9226 14.541 14.1146 14.4615C14.3065 14.3819 14.4809 14.2653 14.6278 14.1183C14.7749 13.9715 14.8917 13.7971 14.9713 13.6051C15.051 13.4131 15.0919 13.2073 15.0919 12.9994C15.0919 12.7915 15.051 12.5857 14.9713 12.3937C14.8917 12.2017 14.7749 12.0273 14.6278 11.8805C14.481 11.7335 14.3066 11.617 14.1146 11.5375C13.9227 11.458 13.7169 11.4171 13.5091 11.4171C13.3014 11.4172 13.0957 11.4582 12.9038 11.5379C12.7119 11.6175 12.5375 11.7342 12.3908 11.8813Z" fill="#888888"/>
<path d="M20.4124 20.5829C24.5651 16.3946 24.5552 9.60913 20.3807 5.43457C20.3747 5.42859 20.3677 5.42495 20.3617 5.41923L20.3632 5.41767L19.9223 4.97619L19.9171 4.98139C19.7999 4.88753 19.6525 4.83949 19.5025 4.84624C19.3525 4.85298 19.21 4.91405 19.1017 5.01805L19.1009 5.01727L19.0942 5.02403L19.0921 5.02585L19.0905 5.02793L18.3696 5.74865L18.369 5.74917C18.369 5.74931 18.369 5.74944 18.3689 5.74954C18.3688 5.74964 18.3687 5.74969 18.3685 5.74969L18.3165 5.80169L18.3217 5.80689C18.2356 5.91635 18.189 6.0517 18.1895 6.19097C18.1899 6.33025 18.2374 6.46528 18.3243 6.57415L18.3194 6.57909L18.3688 6.62849V6.62875H18.369L18.7606 7.02005L18.7676 7.01303C18.7733 7.01901 18.7772 7.02603 18.7832 7.03201C22.0766 10.3257 22.087 15.678 18.8149 18.9852L18.8105 18.9808L18.4195 19.3719L18.4187 19.3724L18.4182 19.3732L18.3693 19.422L18.3742 19.427C18.2804 19.5442 18.2323 19.6916 18.2391 19.8416C18.2458 19.9916 18.3069 20.134 18.4109 20.2423L18.4101 20.2431L18.4182 20.2512L18.4187 20.252L18.4195 20.2525L18.7824 20.6154L18.783 20.6162L18.7837 20.6167L19.1415 20.9745L19.142 20.9753L19.1428 20.9758L19.1943 21.0273L19.1995 21.0221C19.3089 21.1083 19.4443 21.1549 19.5836 21.1545C19.723 21.1541 19.858 21.1066 19.967 21.0197L19.9719 21.0247L20.3794 20.617C20.3797 20.6166 20.3802 20.6162 20.3807 20.616L20.3853 20.611L20.4132 20.5832L20.4124 20.5829Z" fill="#888888"/>
<path d="M17.3896 17.5604C19.8754 15.0387 19.8655 10.9655 17.3576 8.45781C17.3516 8.45183 17.3446 8.44819 17.3386 8.44221L17.3404 8.44039L16.8992 7.99891L16.894 8.00411C16.7767 7.91035 16.6294 7.86238 16.4794 7.86913C16.3295 7.87587 16.187 7.93687 16.0786 8.04077L16.0779 8.03999L16.0703 8.04753L16.069 8.04857L16.068 8.04987L15.3467 8.77111L15.3457 8.77189L15.3449 8.77293L15.2934 8.82441L15.2986 8.82961C15.2125 8.93904 15.1658 9.07437 15.1663 9.21364C15.1667 9.35292 15.2142 9.48797 15.301 9.59687L15.296 9.60181L15.3452 9.65095L15.3457 9.65147L15.3462 9.65199L15.7373 10.0433L15.7443 10.0363C15.75 10.0422 15.7539 10.0493 15.7599 10.0552C17.387 11.6821 17.3961 14.3211 15.7908 15.9617L15.7874 15.9583L15.3961 16.3496L15.3956 16.3498L15.3954 16.3504L15.3462 16.3995L15.3512 16.4044C15.2574 16.5216 15.2094 16.6689 15.2161 16.8189C15.2229 16.9688 15.2839 17.1112 15.3878 17.2195L15.3868 17.2206L16.1189 17.9525L16.1712 18.0047L16.1764 17.9995C16.2859 18.0856 16.4212 18.1322 16.5604 18.1318C16.6997 18.1314 16.8347 18.0839 16.9437 17.9972L16.9489 18.0024L17.3576 17.5937L17.3901 17.5612L17.3896 17.5604Z" fill="#888888"/>
<path d="M14.6289 11.882C14.4821 11.735 14.3077 11.6184 14.1157 11.5388C13.9237 11.4592 13.718 11.4182 13.5102 11.4182C13.3024 11.4182 13.0966 11.4591 12.9046 11.5387C12.7127 11.6182 12.5382 11.7348 12.3914 11.8818C12.2443 12.0286 12.1276 12.2029 12.0481 12.3949C11.9685 12.5868 11.9275 12.7926 11.9275 13.0004C11.9275 13.2082 11.9685 13.414 12.0481 13.6059C12.1276 13.7979 12.2443 13.9722 12.3914 14.119C12.5382 14.2661 12.7126 14.3827 12.9045 14.4623C13.0965 14.5419 13.3023 14.5828 13.5101 14.5828C13.7179 14.5828 13.9236 14.5418 14.1155 14.4621C14.3075 14.3825 14.4818 14.2659 14.6287 14.1188C14.9253 13.8222 15.0919 13.4199 15.092 13.0005C15.092 12.581 14.9254 12.1787 14.6289 11.882Z" fill="#888888"/>
<path d="M11.7178 16.4032L11.7228 16.3982L11.6739 16.3494L11.6731 16.3483L11.6723 16.3475L11.2816 15.9565L11.2745 15.9635C11.2688 15.9575 11.2649 15.9505 11.2592 15.9448C9.63213 14.3177 9.62303 11.6787 11.2283 10.0381L11.2316 10.0415L11.6729 9.60055L11.6677 9.59535C11.7615 9.47815 11.8095 9.33085 11.8027 9.1809C11.796 9.03094 11.7349 8.88855 11.631 8.78025L11.632 8.77921L10.8474 7.99479L10.8422 7.99999C10.7327 7.91383 10.5974 7.86718 10.4581 7.8676C10.3189 7.86803 10.1838 7.9155 10.0749 8.00233L10.07 7.99739L10.0203 8.04705L9.66125 8.40611L9.62875 8.43861L9.62953 8.43939C7.14341 10.9611 7.15355 15.0343 9.66151 17.5422C9.66723 17.548 9.67425 17.5519 9.68023 17.5576L9.67867 17.5591L10.1199 18.0006L10.1251 17.9954C10.2423 18.0891 10.3896 18.137 10.5395 18.1303C10.6895 18.1236 10.8318 18.0626 10.9402 17.9588L10.941 17.9595L10.9485 17.952L10.9498 17.951L10.9508 17.9497L11.6723 17.2282L11.6731 17.2276L11.6736 17.2271L11.7254 17.1754L11.7202 17.1702C11.8064 17.0608 11.853 16.9255 11.8526 16.7863C11.8522 16.647 11.8047 16.512 11.7178 16.4032Z" fill="#888888"/>
<path d="M8.69511 19.4259L8.70005 19.421L8.65065 19.3716L8.65039 19.3713L8.65013 19.3711L8.25857 18.9798L8.25155 18.9868C8.24583 18.9808 8.24193 18.9738 8.23621 18.9678C4.94253 15.6739 4.93265 10.322 8.20475 7.01484L8.20891 7.019L8.59995 6.62796L8.60073 6.62744L8.60125 6.62666L8.65013 6.57778L8.64519 6.57284C8.73905 6.45562 8.78709 6.30827 8.78034 6.15826C8.7736 6.00824 8.71253 5.8658 8.60853 5.75748L8.60957 5.75644L8.23673 5.3836L8.23647 5.38334L8.23621 5.38308L7.82515 4.97202L7.81995 4.97748C7.71052 4.89132 7.57519 4.84467 7.43591 4.8451C7.29664 4.84552 7.16159 4.893 7.05269 4.97982L7.04749 4.97462L6.60653 5.41584L6.60731 5.41662C2.45407 9.60522 2.46395 16.391 6.63877 20.5655C6.64475 20.5715 6.65177 20.5751 6.65775 20.5809L6.65593 20.5827L7.09715 21.0242L7.10235 21.019C7.21964 21.1127 7.36699 21.1606 7.51697 21.1538C7.66696 21.147 7.80937 21.086 7.91771 20.982L7.91849 20.9828L7.92707 20.9742L8.64935 20.2517L8.65065 20.2507L8.65169 20.2494L8.70265 20.1984L8.69745 20.1932C8.78361 20.0838 8.83026 19.9484 8.82984 19.8092C8.82941 19.6699 8.78193 19.5348 8.69511 19.4259Z" fill="#888888"/>
</svg>
