<svg width="57" height="56" viewBox="0 0 57 56" fill="none" xmlns="http://www.w3.org/2000/svg">
<g clip-path="url(#clip0)">
<path d="M28.5 0C32.2917 0 35.9151 0.740385 39.3702 2.22115C42.8253 3.70192 45.8037 5.69311 48.3053 8.19471C50.8069 10.6963 52.7981 13.6747 54.2789 17.1298C55.7596 20.5849 56.5 24.2083 56.5 28C56.5 31.7917 55.7596 35.4207 54.2789 38.887C52.7981 42.3534 50.8069 45.3317 48.3053 47.8221C45.8037 50.3125 42.8253 52.2981 39.3702 53.7789C35.9151 55.2596 32.2917 56 28.5 56C24.7083 56 21.0849 55.2596 17.6298 53.7789C14.1747 52.2981 11.1963 50.3125 8.69471 47.8221C6.19311 45.3317 4.20192 42.3534 2.72115 38.887C1.24038 35.4207 0.5 31.7917 0.5 28C0.5 24.2083 1.24038 20.5849 2.72115 17.1298C4.20192 13.6747 6.19311 10.6963 8.69471 8.19471C11.1963 5.69311 14.1747 3.70192 17.6298 2.22115C21.0849 0.740385 24.7083 0 28.5 0ZM13.4231 21.5385C13.4231 22.7276 13.8438 23.7428 14.6851 24.5841C15.5264 25.4255 16.5417 25.8462 17.7308 25.8462C18.9199 25.8462 19.9351 25.4255 20.7764 24.5841C21.6178 23.7428 22.0385 22.7276 22.0385 21.5385C22.0385 20.3494 21.6178 19.3341 20.7764 18.4928C19.9351 17.6514 18.9199 17.2308 17.7308 17.2308C16.5417 17.2308 15.5264 17.6514 14.6851 18.4928C13.8438 19.3341 13.4231 20.3494 13.4231 21.5385ZM28.5 45.2308C31.5737 45.2308 34.3053 44.2268 36.6947 42.2188C39.0841 40.2107 40.6603 37.6362 41.4231 34.4952H15.5769C16.3397 37.6587 17.9103 40.2388 20.2885 42.2356C22.6667 44.2324 25.4038 45.2308 28.5 45.2308ZM39.2692 25.8462C40.4583 25.8462 41.4736 25.4255 42.3149 24.5841C43.1563 23.7428 43.5769 22.7276 43.5769 21.5385C43.5769 20.3494 43.1563 19.3341 42.3149 18.4928C41.4736 17.6514 40.4583 17.2308 39.2692 17.2308C38.0801 17.2308 37.0649 17.6514 36.2236 18.4928C35.3822 19.3341 34.9615 20.3494 34.9615 21.5385C34.9615 22.7276 35.3822 23.7428 36.2236 24.5841C37.0649 25.4255 38.0801 25.8462 39.2692 25.8462Z" fill="#FFC91A"/>
</g>
<defs>
<clipPath id="clip0">
<rect x="0.5" width="56" height="56" fill="white"/>
</clipPath>
</defs>
</svg>
