<svg width="437" height="472" viewBox="0 0 437 472" fill="none" xmlns="http://www.w3.org/2000/svg">
<path d="M226.58 27.0002L349.481 27.0002C382.881 27.0002 409.981 54.2002 409.981 87.5002L409.98 383.7C409.98 417.1 382.78 444.2 349.48 444.2L224.58 444.2C217.08 444.2 211.08 450.2 211.08 457.7C211.08 465.2 217.08 471.2 224.58 471.2L349.48 471.2C397.78 471.2 436.98 431.9 436.98 383.7L436.981 87.5002C436.981 39.2002 397.681 0.00017967 349.481 0.000175456L226.581 0.000164712C219.081 0.000164056 213.081 6.00016 213.08 13.5002C213.08 21.0002 219.18 27.0002 226.58 27.0002Z" fill="black"/>
<path d="M4.1797 245.1L89.9797 330.9C95.2797 336.2 103.78 336.2 109.08 330.9C114.38 325.6 114.38 317.1 109.08 311.8L46.2797 249L320.18 249C327.68 249 333.68 243 333.68 235.5C333.68 228 327.68 222 320.18 222L46.2797 222L109.08 159.2C114.38 153.9 114.38 145.4 109.08 140.1C106.48 137.5 102.98 136.1 99.5797 136.1C96.1797 136.1 92.6797 137.4 90.0797 140.1L4.27967 225.9C-1.12033 231.3 -1.1203 239.9 4.1797 245.1Z" fill="black"/>
</svg>
