<?xml version="1.0" encoding="UTF-8"?>
<svg width="235px" height="153px" viewBox="0 0 235 153" version="1.1" xmlns="http://www.w3.org/2000/svg" xmlns:xlink="http://www.w3.org/1999/xlink">
    <!-- Generator: Sketch 52.3 (67297) - http://www.bohemiancoding.com/sketch -->
    <title>Group 2</title>
    <desc>Created with Sketch.</desc>
    <g id="Page-1" stroke="none" stroke-width="1" fill="none" fill-rule="evenodd">
        <g id="Group-2" transform="translate(2.000000, 2.000000)">
            <g id="Group" transform="translate(29.000000, 0.000000)">
                <polygon id="Path" fill="#FFFFFF" points="3.1405 12.6303 11.211 12.6105 15.7374 30.0856 21.0749 12.5864 28.2487 12.5688 33.6719 30.0417 38.561 12.5435 46.6315 12.5238 37.7357 41.6891 30.5619 41.7067 25.1387 24.2339 19.3529 41.7342 12.1791 41.7518"></polygon>
                <polygon id="Path" stroke-opacity="0.17" stroke="#000000" stroke-width="4" points="3.1356 10.6303 0.42769 10.637 1.23039 13.2232 10.269 42.3446 10.7069 43.7554 12.184 43.7518 19.3578 43.7342 20.7993 43.7307 21.2518 42.362 25.0786 30.7871 28.6518 42.2996 29.0897 43.7103 30.5668 43.7067 37.7406 43.6891 39.2177 43.6855 39.6487 42.2726 48.5445 13.1072 49.3345 10.5171 46.6266 10.5238 38.5561 10.5435 37.0422 10.5472 36.6348 12.0053 33.5711 22.9701 30.1588 11.9759 29.7209 10.5652 28.2438 10.5688 21.07 10.5864 19.5929 10.59 19.1619 12.0029 15.8944 22.7156 13.1471 12.1091 12.758 10.6068 11.2061 10.6106"></polygon>
                <path d="M51.9868,2.19865 L60.0572,2.17888 L60.0924,16.5264 C61.8804,14.2802 64.565,12.0318 68.6003,12.0219 C74.8773,12.0065 78.4741,16.033 78.4906,22.7584 L78.5367,41.5895 L70.4662,41.6093 L70.4267,25.4683 C70.4168,21.4331 68.6189,19.6441 65.4804,19.6517 C62.3419,19.6594 60.5528,21.4573 60.5627,25.4925 L60.6023,41.6335 L52.5318,41.6533 L52.4351,2.19756 L51.9868,2.19865 Z" id="Path" fill="#FFFFFF"></path>
                <path d="M62.0572,2.17398 L62.0523,0.17398 L60.0523,0.17888 L54.4302,0.19266 L52.4302,0.19756 L51.9819,0.19866 L51.9868,2.19865 L50.4351,2.20246 L50.5318,41.6582 L50.5367,43.6582 L52.5367,43.6533 L60.6072,43.6335 L62.6072,43.6286 L62.6023,41.6286 L62.5627,25.4876 C62.5584,23.7245 62.9531,22.8264 63.3438,22.3814 C63.6932,21.9834 64.2983,21.6547 65.4853,21.6517 C66.6724,21.6488 67.279,21.9746 67.6304,22.3709 C68.0233,22.814 68.4224,23.7101 68.4267,25.4732 L68.4662,41.6142 L68.4711,43.6142 L70.4711,43.6093 L78.5416,43.5895 L80.5416,43.5846 L80.5367,41.5846 L80.4906,22.7535 C80.4815,19.0516 79.4845,15.8283 77.3697,13.5134 C75.2305,11.1719 72.1788,10.0132 68.5954,10.0219 C65.956,10.0284 63.8094,10.8355 62.0812,11.9682 L62.0572,2.17398 Z" id="Path" stroke-opacity="0.17" stroke="#000000" stroke-width="4"></path>
                <path d="M83.896,33.0575 C83.8806,26.7804 88.8049,23.6298 95.5303,23.6133 C98.22,23.6068 100.463,24.0496 102.707,24.9409 L102.706,24.4925 C102.697,20.9056 100.451,19.1177 96.416,19.1275 C93.2775,19.1352 91.0368,19.5891 88.3488,20.4924 L86.0917,14.2209 C89.2269,12.8681 92.3632,11.9637 97.295,11.9516 C101.779,11.9406 104.921,13.278 107.167,15.0659 C109.414,17.3022 110.319,20.4386 110.328,24.4738 L110.369,41.0631 L102.299,41.0829 L102.292,38.3928 C100.504,40.639 97.369,41.9917 93.7819,42.0005 C87.9532,42.0148 83.9103,38.8862 83.896,33.0575 Z M102.274,31.219 L102.271,29.8739 C100.924,28.9805 99.129,28.5365 97.336,28.5409 C93.7489,28.5497 91.5104,29.9003 91.517,32.5904 C91.5225,34.8323 93.3193,36.1729 96.0094,36.1663 C100.045,36.1565 102.281,33.9092 102.274,31.219 Z" id="Shape" fill="#FFFFFF" fill-rule="nonzero"></path>
                <path d="M99.787,21.9942 C99.789,21.9967 99.792,21.9991 99.795,22.0016 C98.451,21.7389 97.048,21.6096 95.5254,21.6134 C91.8852,21.6223 88.4989,22.4758 85.9746,24.3959 C83.3775,26.3712 81.8869,29.3343 81.896,33.0624 C81.9044,36.4695 83.1098,39.2911 85.3487,41.2315 C87.5496,43.139 90.532,44.0085 93.7868,44.0005 C96.1311,43.9948 98.384,43.4802 100.302,42.4986 L100.303,43.0878 L102.303,43.0829 L110.374,43.0631 L112.374,43.0582 L112.369,41.0582 L112.328,24.4689 C112.318,20.162 111.351,16.4085 108.578,13.6483 L108.499,13.5701 L108.412,13.5011 C105.799,11.4211 102.213,9.9395 97.29,9.9516 C92.0534,9.9644 88.6499,10.9388 85.2993,12.3845 L83.5732,13.1293 L84.2098,14.8981 L86.467,21.1697 L87.13,23.0119 L88.9859,22.3882 C91.5001,21.5433 93.5269,21.1346 96.4209,21.1275 C98.182,21.1232 99.217,21.5171 99.787,21.9942 Z M97.341,30.5409 C98.418,30.5383 99.436,30.7326 100.274,31.0752 L100.274,31.2239 C100.276,31.9813 99.976,32.6544 99.366,33.1711 C98.738,33.7026 97.659,34.1623 96.0045,34.1663 C94.9684,34.1689 94.3255,33.9095 93.9883,33.6459 C93.7042,33.4238 93.5183,33.1166 93.517,32.5855 C93.5153,31.8916 93.7551,31.5146 94.1924,31.2215 C94.7411,30.8537 95.7488,30.5448 97.341,30.5409 Z" id="Shape" stroke-opacity="0.17" stroke="#000000" stroke-width="4"></path>
                <path d="M118.42,32.9729 L118.387,19.5221 L114.8,19.5309 L114.782,12.3571 L118.369,12.3483 L118.352,5.17458 L126.422,5.1548 L126.44,12.3286 L133.165,12.3121 L133.183,19.4859 L126.457,19.5023 L126.487,31.6081 C126.491,33.4015 127.39,34.296 129.184,34.2916 C130.529,34.2883 131.873,33.8367 133.217,33.385 L133.233,40.1104 C131.442,41.0115 129.651,41.9127 126.961,41.9193 C121.58,41.9324 118.436,39.6983 118.42,32.9729 Z" id="Path" fill="#FFFFFF"></path>
                <path d="M128.487,31.6032 L128.462,21.4974 L133.188,21.4858 L135.188,21.4809 L135.183,19.481 L135.165,12.3072 L135.16,10.3072 L133.16,10.3121 L128.435,10.3237 L128.422,5.1499 L128.417,3.1499 L126.417,3.1548 L118.347,3.17458 L116.347,3.17948 L116.352,5.17948 L116.364,10.3532 L114.777,10.3571 L112.777,10.362 L112.782,12.362 L112.8,19.5358 L112.805,21.5358 L114.805,21.5309 L116.392,21.527 L116.42,32.9778 C116.429,36.6097 117.28,39.4894 119.296,41.4181 C121.298,43.3339 124.051,43.9264 126.965,43.9192 C130.129,43.9115 132.276,42.8312 134.07,41.9283 L134.132,41.8971 L135.236,41.3416 L135.233,40.1055 L135.217,33.3801 L135.21,30.6053 L132.58,31.4892 C131.169,31.9634 130.141,32.2893 129.179,32.2916 C128.794,32.2926 128.629,32.2306 128.577,32.2041 C128.551,32.1528 128.488,31.9882 128.487,31.6032 Z" id="Shape" stroke-opacity="0.17" stroke="#000000" stroke-width="4"></path>
            </g>
            <g id="Group-1" transform="translate(97.000000, 108.000000)">
                <path d="M2.13281,9.4484 L10.2033,9.4287 L10.2132,13.4639 C12.0011,11.2177 14.6858,8.9693 18.721,8.9594 C24.9981,8.944 28.5949,12.9705 28.6113,19.6959 L28.6575,38.527 L20.1386,38.5479 L20.0991,22.4069 C20.0892,18.3717 18.2914,16.5826 15.1528,16.5903 C12.0143,16.598 10.2253,18.3959 10.2341,21.9827 L10.2736,38.1237 L2.20313,38.1435 L2.13281,9.4484 Z" id="Path" fill="#FFFFFF"></path>
                <path d="M2.12791,7.4484 L0.12792,7.4533 L0.13282,9.4533 L0.20313,38.1484 L0.20804,40.1484 L2.20803,40.1435 L10.2785,40.1237 L12.2785,40.1188 L12.2736,38.1188 L12.2341,21.9778 C12.2304,20.4935 12.5991,19.7122 12.9756,19.3086 C13.3326,18.926 13.9669,18.5932 15.1577,18.5903 C16.3448,18.5874 16.9514,18.9132 17.3028,19.3094 C17.6957,19.7526 18.0948,20.6487 18.0991,22.4118 L18.1386,38.5528 L18.1435,40.5528 L20.1435,40.5479 L28.6624,40.527 L30.6624,40.5221 L30.6575,38.5221 L30.6113,19.691 C30.6023,15.9891 29.6053,12.7658 27.4905,10.4509 C25.3513,8.1093 22.2996,6.95064 18.7161,6.95942 C16.0768,6.96589 13.9302,7.773 12.202,8.9057 L12.1984,7.4238 L10.1984,7.4287 L2.12791,7.4484 Z" id="Path" stroke-opacity="0.17" stroke="#000000" stroke-width="4"></path>
                <path d="M34.0014,23.7177 C33.9816,15.6472 39.7938,8.9075 48.3127,8.8866 C57.7282,8.8635 62.2305,16.4747 62.2503,24.5452 C62.2514,24.9935 62.2536,25.8903 62.2558,26.787 L42.0796,26.8364 C42.9851,30.4211 45.6807,32.6563 49.2676,32.6475 C51.9578,32.6409 54.1974,31.7387 56.4337,29.4914 L60.9272,33.5157 C58.2447,36.6608 54.215,38.9125 49.283,38.9246 C40.3147,38.4982 34.0234,32.6849 34.0014,23.7177 Z M54.6205,21.4253 C54.1633,17.8395 51.9149,15.1549 48.3281,15.1637 C44.7412,15.1724 42.9532,17.4187 42.0664,21.4561 L54.6205,21.4253 Z" id="Shape" fill="#FFFFFF" fill-rule="nonzero"></path>
                <path d="M62.2607,28.787 L64.2607,28.7821 L64.2558,26.7821 L64.2558,26.7768 L64.2558,26.7716 L64.2558,26.7663 L64.2557,26.7611 L64.2557,26.7558 L64.2557,26.7505 L64.2557,26.7453 L64.2557,26.74 L64.2557,26.7348 L64.2557,26.7295 L64.2557,26.7243 L64.2556,26.719 L64.2556,26.7138 L64.2556,26.7085 L64.2556,26.7033 L64.2556,26.698 L64.2556,26.6928 L64.2556,26.6875 L64.2555,26.6823 L64.2555,26.677 L64.2555,26.6718 L64.2555,26.6665 L64.2555,26.6613 L64.2555,26.656 L64.2555,26.6508 L64.2555,26.6455 L64.2554,26.6403 L64.2554,26.635 L64.2554,26.6298 L64.2554,26.6245 L64.2554,26.6193 L64.2554,26.614 L64.2554,26.6088 L64.2554,26.6036 L64.2553,26.5983 L64.2553,26.5931 L64.2553,26.5878 L64.2553,26.5826 L64.2553,26.5774 L64.2553,26.5721 L64.2553,26.5669 L64.2553,26.5616 L64.2552,26.5564 L64.2552,26.5512 L64.2552,26.5459 L64.2552,26.5407 L64.2552,26.5355 L64.2552,26.5302 L64.2552,26.525 L64.2551,26.5198 L64.2551,26.5145 L64.2551,26.5093 L64.2551,26.5041 L64.2551,26.4989 L64.2551,26.4936 L64.2551,26.4884 L64.2551,26.4832 L64.255,26.478 L64.255,26.4728 L64.255,26.4675 L64.255,26.4623 L64.255,26.4571 L64.255,26.4519 L64.255,26.4467 L64.255,26.4415 L64.2549,26.4363 L64.2549,26.431 L64.2549,26.4258 L64.2549,26.4206 L64.2549,26.4154 L64.2549,26.4102 L64.2549,26.405 L64.2549,26.3998 L64.2548,26.3946 L64.2548,26.3894 L64.2548,26.3842 L64.2548,26.379 L64.2548,26.3738 L64.2548,26.3686 L64.2548,26.3634 L64.2548,26.3583 L64.2547,26.3531 L64.2547,26.3479 L64.2547,26.3427 L64.2547,26.3375 L64.2547,26.3323 L64.2547,26.3272 L64.2547,26.322 L64.2547,26.3168 L64.2546,26.3116 L64.2546,26.3065 L64.2546,26.3013 L64.2546,26.2961 L64.2546,26.2909 L64.2546,26.2858 L64.2546,26.2806 L64.2546,26.2755 L64.2545,26.2703 L64.2545,26.2651 L64.2545,26.26 L64.2545,26.2548 L64.2545,26.2497 L64.2545,26.2445 L64.2545,26.2394 L64.2545,26.2342 L64.2544,26.2291 L64.2544,26.224 L64.2544,26.2188 L64.2544,26.2137 L64.2544,26.2086 L64.2544,26.2034 L64.2544,26.1983 L64.2543,26.1932 L64.2543,26.188 L64.2543,26.1829 L64.2543,26.1778 L64.2543,26.1727 L64.2543,26.1676 L64.2543,26.1624 L64.2543,26.1573 L64.2542,26.1522 L64.2542,26.1471 L64.2542,26.142 L64.2542,26.1369 L64.2542,26.1318 L64.2542,26.1267 L64.2542,26.1216 L64.2542,26.1165 L64.2541,26.1114 L64.2541,26.1064 L64.2541,26.1013 L64.2541,26.0962 L64.2541,26.0911 L64.2541,26.086 L64.2541,26.081 L64.2541,26.0759 L64.254,26.0708 L64.254,26.0658 L64.254,26.0607 L64.254,26.0556 L64.254,26.0506 L64.254,26.0455 L64.254,26.0405 L64.254,26.0354 L64.254,26.0304 L64.2539,26.0254 L64.2539,26.0203 L64.2539,26.0153 L64.2539,26.0102 L64.2539,26.0052 L64.2539,26.0002 L64.2539,25.9952 L64.2539,25.9901 L64.2538,25.9851 L64.2538,25.9801 L64.2538,25.9751 L64.2538,25.9701 L64.2538,25.9651 L64.2538,25.9601 L64.2538,25.9551 L64.2538,25.9501 L64.2537,25.9451 L64.2537,25.9401 L64.2537,25.9351 L64.2537,25.9301 L64.2537,25.9251 L64.2537,25.9202 L64.2537,25.9152 L64.2537,25.9102 L64.2536,25.9053 L64.2536,25.9003 L64.2536,25.8953 L64.2536,25.8904 L64.2536,25.8854 L64.2536,25.8805 L64.2536,25.8755 L64.2536,25.8706 L64.2535,25.8657 L64.2535,25.8607 L64.2535,25.8558 L64.2535,25.8509 L64.2535,25.8459 L64.2535,25.841 L64.2535,25.8361 L64.2535,25.8312 L64.2535,25.8263 L64.2534,25.8214 L64.2534,25.8165 L64.2534,25.8116 L64.2534,25.8067 L64.2534,25.8018 L64.2534,25.7969 L64.2534,25.792 L64.2534,25.7871 L64.2533,25.7823 L64.2533,25.7774 L64.2533,25.7725 L64.2533,25.7677 L64.2533,25.7628 L64.2533,25.758 L64.2533,25.7531 L64.2533,25.7483 L64.2532,25.7434 L64.2532,25.7386 L64.2532,25.7337 L64.2532,25.7289 L64.2532,25.7241 L64.2532,25.7193 L64.2532,25.7144 L64.2532,25.7096 L64.2532,25.7048 L64.2531,25.7 L64.2531,25.6952 L64.2531,25.6904 L64.2531,25.6856 L64.2531,25.6808 L64.2531,25.676 L64.2531,25.6713 L64.2531,25.6665 L64.253,25.6617 L64.253,25.6569 L64.253,25.6522 L64.253,25.6474 L64.253,25.6427 L64.253,25.6379 L64.253,25.6332 L64.253,25.6284 L64.253,25.6237 L64.2529,25.619 L64.2529,25.6142 L64.2529,25.6095 L64.2529,25.6048 L64.2529,25.6001 L64.2529,25.5954 L64.2529,25.5907 L64.2529,25.586 L64.2528,25.5813 L64.2528,25.5766 L64.2528,25.5719 L64.2528,25.5672 L64.2528,25.5626 L64.2528,25.5579 L64.2528,25.5532 L64.2528,25.5486 L64.2528,25.5439 L64.2527,25.5393 L64.2527,25.5346 L64.2527,25.53 L64.2527,25.5253 L64.2527,25.5207 L64.2527,25.5161 L64.2527,25.5115 L64.2527,25.5068 L64.2527,25.5022 L64.2526,25.4976 L64.2526,25.493 L64.2526,25.4884 L64.2526,25.4838 L64.2526,25.4793 L64.2526,25.4747 L64.2526,25.4701 L64.2526,25.4655 L64.2526,25.461 L64.2525,25.4564 L64.2525,25.4519 L64.2525,25.4473 L64.2525,25.4428 L64.2525,25.4382 L64.2525,25.4337 L64.2525,25.4292 L64.2525,25.4247 L64.2525,25.4201 L64.2524,25.4156 L64.2524,25.4111 L64.2524,25.4066 L64.2524,25.4021 L64.2524,25.3976 L64.2524,25.3932 L64.2524,25.3887 L64.2524,25.3842 L64.2524,25.3798 L64.2523,25.3753 L64.2523,25.3708 L64.2523,25.3664 L64.2523,25.3619 L64.2523,25.3575 L64.2523,25.3531 L64.2523,25.3487 L64.2523,25.3442 L64.2523,25.3398 L64.2522,25.3354 L64.2522,25.331 L64.2522,25.3266 L64.2522,25.3222 L64.2522,25.3178 L64.2522,25.3135 L64.2522,25.3091 L64.2522,25.3047 L64.2522,25.3004 L64.2522,25.296 L64.2521,25.2916 L64.2521,25.2873 L64.2521,25.283 L64.2521,25.2786 L64.2521,25.2743 L64.2521,25.27 L64.2521,25.2657 L64.2521,25.2614 L64.2521,25.2571 L64.252,25.2528 L64.252,25.2485 L64.252,25.2442 L64.252,25.2399 L64.252,25.2357 L64.252,25.2314 L64.252,25.2271 L64.252,25.2229 L64.252,25.2187 L64.252,25.2144 L64.2519,25.2102 L64.2519,25.206 L64.2519,25.2017 L64.2519,25.1975 L64.2519,25.1933 L64.2519,25.1891 L64.2519,25.1849 L64.2519,25.1807 L64.2519,25.1766 L64.2518,25.1724 L64.2518,25.1682 L64.2518,25.1641 L64.2518,25.1599 L64.2518,25.1558 L64.2518,25.1516 L64.2518,25.1475 L64.2518,25.1434 L64.2518,25.1392 L64.2518,25.1351 L64.2517,25.131 L64.2517,25.1269 L64.2517,25.1228 L64.2517,25.1188 L64.2517,25.1147 L64.2517,25.1106 L64.2517,25.1065 L64.2517,25.1025 L64.2517,25.0984 L64.2517,25.0944 L64.2516,25.0903 L64.2516,25.0863 L64.2516,25.0823 L64.2516,25.0783 L64.2516,25.0743 L64.2516,25.0703 L64.2516,25.0663 L64.2516,25.0623 L64.2516,25.0583 L64.2516,25.0543 L64.2515,25.0504 L64.2515,25.0464 L64.2515,25.0425 L64.2515,25.0385 L64.2515,25.0346 L64.2515,25.0306 L64.2515,25.0267 L64.2515,25.0228 L64.2515,25.0189 L64.2515,25.015 L64.2515,25.0111 L64.2514,25.0072 L64.2514,25.0033 L64.2514,24.9995 L64.2514,24.9956 L64.2514,24.9917 L64.2514,24.9879 L64.2514,24.9841 L64.2514,24.9802 L64.2514,24.9764 L64.2514,24.9726 L64.2513,24.9688 L64.2513,24.965 L64.2513,24.9612 L64.2513,24.9574 L64.2513,24.9536 L64.2513,24.9498 L64.2513,24.9461 L64.2513,24.9423 L64.2513,24.9386 L64.2513,24.9348 L64.2513,24.9311 L64.2512,24.9274 L64.2512,24.9236 L64.2512,24.9199 L64.2512,24.9162 L64.2512,24.9125 L64.2512,24.9088 L64.2512,24.9052 L64.2512,24.9015 L64.2512,24.8978 L64.2512,24.8942 L64.2512,24.8905 L64.2511,24.8869 L64.2511,24.8833 L64.2511,24.8796 L64.2511,24.876 L64.2511,24.8724 L64.2511,24.8688 L64.2511,24.8652 L64.2511,24.8616 L64.2511,24.8581 L64.2511,24.8545 L64.2511,24.8509 L64.2511,24.8474 L64.251,24.8439 L64.251,24.8403 L64.251,24.8368 L64.251,24.8333 L64.251,24.8298 L64.251,24.8263 L64.251,24.8228 L64.251,24.8193 L64.251,24.8158 L64.251,24.8124 L64.251,24.8089 L64.2509,24.8055 L64.2509,24.802 L64.2509,24.7986 L64.2509,24.7952 L64.2509,24.7918 L64.2509,24.7884 L64.2509,24.785 L64.2509,24.7816 L64.2509,24.7782 L64.2509,24.7748 L64.2509,24.7715 L64.2509,24.7681 L64.2508,24.7648 L64.2508,24.7614 L64.2508,24.7581 L64.2508,24.7548 L64.2508,24.7515 L64.2508,24.7482 L64.2508,24.7449 L64.2508,24.7416 L64.2508,24.7383 L64.2508,24.735 L64.2508,24.7318 L64.2508,24.7285 L64.2508,24.7253 L64.2507,24.7221 L64.2507,24.7189 L64.2507,24.7156 L64.2507,24.7124 L64.2507,24.7093 L64.2507,24.7061 L64.2507,24.7029 L64.2507,24.6997 L64.2507,24.6966 L64.2507,24.6934 L64.2507,24.6903 L64.2507,24.6872 L64.2507,24.684 L64.2506,24.6809 L64.2506,24.6778 L64.2506,24.6747 L64.2506,24.6716 L64.2506,24.6686 L64.2506,24.6655 L64.2506,24.6625 L64.2506,24.6594 L64.2506,24.6564 L64.2506,24.6533 L64.2506,24.6503 L64.2506,24.6473 L64.2506,24.6443 L64.2505,24.6413 L64.2505,24.6384 L64.2505,24.6354 L64.2505,24.6324 L64.2505,24.6295 L64.2505,24.6265 L64.2505,24.6236 L64.2505,24.6207 L64.2505,24.6178 L64.2505,24.6149 L64.2505,24.612 L64.2505,24.6091 L64.2505,24.6062 L64.2505,24.6034 L64.2504,24.6005 L64.2504,24.5977 L64.2504,24.5948 L64.2504,24.592 L64.2504,24.5892 L64.2504,24.5864 L64.2504,24.5836 L64.2504,24.5808 L64.2504,24.578 L64.2504,24.5753 L64.2504,24.5725 L64.2504,24.5698 L64.2504,24.567 L64.2504,24.5643 L64.2504,24.5616 L64.2503,24.5589 L64.2503,24.5562 L64.2503,24.5535 L64.2503,24.5509 L64.2503,24.5482 L64.2503,24.5455 L64.2503,24.5429 L64.2503,24.5403 C64.2396,20.163 63.0165,15.7752 60.3724,12.4387 C57.6824,9.0441 53.6207,6.8736 48.3078,6.88662 C38.5647,6.9105 31.9792,14.6711 32.0014,23.7226 C32.0136,28.6964 33.7771,32.9217 36.8916,35.9564 C39.992,38.9774 44.2965,40.6897 49.188,40.9223 L49.2379,40.9247 L49.2879,40.9246 C54.8641,40.9109 59.4286,38.3547 62.4489,34.8135 L63.7157,33.3282 L62.2615,32.0258 L58.6548,28.7958 L62.2607,28.787 Z M45.2194,28.8287 L54.2302,28.8066 C52.6335,30.1506 51.0902,30.643 49.2627,30.6475 C47.5956,30.6516 46.1939,30.018 45.2194,28.8287 Z M48.333,17.1637 C49.5834,17.1606 50.5159,17.6096 51.2013,18.3276 C51.4921,18.6322 51.7531,19.0019 51.973,19.4318 L44.8037,19.4494 C45.0597,18.9074 45.3407,18.4886 45.64,18.1711 C46.2165,17.5595 47.0064,17.1669 48.333,17.1637 Z" id="Shape" stroke-opacity="0.17" stroke="#000000" stroke-width="4"></path>
                <polygon id="Path" fill="#FFFFFF" points="74.3528 23.1705 64.9032 9.2944 73.8704 9.2724 79.2716 17.7781 84.1827 9.2472 92.7015 9.2263 82.8717 23.1496 93.2202 37.9203 84.253 37.9422 78.4023 28.9893 72.5956 37.9708 64.0768 37.9917"></polygon>
                <polygon id="Path" stroke-opacity="0.17" stroke="#000000" stroke-width="4" points="74.2752 39.0567 78.4113 32.6591 82.5788 39.0363 83.1725 39.9449 84.2579 39.9422 93.2251 39.9203 97.0569 39.9109 94.8582 36.7727 85.3168 23.154 94.3354 10.3798 96.5684 7.2168 92.6966 7.2263 84.1778 7.2472 83.0247 7.25 82.4494 8.2493 79.1877 13.9151 75.5588 8.2003 74.9678 7.2697 73.8655 7.2724 64.8983 7.2944 61.1278 7.3037 63.2501 10.4202 71.9262 23.1603 62.4332 36.8521 60.2499 40.0011 64.0817 39.9917 72.6005 39.9708 73.6859 39.9681"></polygon>
                <path d="M99.478,29.8343 L99.445,16.3835 L95.8578,16.3923 L95.8402,9.2186 L99.427,9.2098 L99.41,2.036 L107.48,2.01622 L107.498,9.19 L114.223,9.1735 L114.241,16.3473 L107.515,16.3638 L107.545,28.4695 C107.549,30.2629 108.448,31.1575 110.242,31.1531 C111.587,31.1498 112.931,30.6981 114.275,30.2465 L114.291,36.9719 C112.5,37.873 110.709,38.7741 108.018,38.7807 C103.085,38.3444 99.494,36.5598 99.478,29.8343 Z" id="Path" fill="#FFFFFF"></path>
                <path d="M109.545,28.4646 L109.52,18.3588 L114.245,18.3473 L116.245,18.3424 L116.241,16.3424 L116.223,9.1686 L116.218,7.1686 L114.218,7.1735 L109.493,7.1851 L109.48,2.01132 L109.475,0.01132 L107.475,0.01622 L99.405,0.036 L97.4046,0.0409 L97.4095,2.0409 L97.4222,7.2147 L95.8353,7.2186 L93.8353,7.2235 L93.8402,9.2235 L93.8578,16.3972 L93.8627,18.3972 L95.8627,18.3923 L97.4496,18.3884 L97.4776,29.8392 C97.4867,33.5569 98.496,36.3212 100.579,38.164 C102.584,39.937 105.246,40.5433 107.842,40.7729 L107.933,40.7809 L108.023,40.7807 C111.187,40.7729 113.333,39.6926 115.128,38.7898 L115.19,38.7585 L116.294,38.203 L116.291,36.967 L116.275,30.2416 L116.268,27.4667 L113.638,28.3506 C112.226,28.8249 111.199,29.1507 110.237,29.1531 C109.852,29.154 109.687,29.092 109.635,29.0655 C109.609,29.0142 109.546,28.8496 109.545,28.4646 Z" id="Shape" stroke-opacity="0.17" stroke="#000000" stroke-width="4"></path>
            </g>
            <g transform="translate(0.000000, 50.000000)">
                <path d="M2,3.00488 L10.0705,2.98511 L10.1056,17.3326 C11.8936,15.0864 14.5783,12.8381 18.6135,12.8282 C24.8906,12.8128 28.4873,16.8392 28.5038,23.5646 L28.5499,42.3958 L20.4795,42.4156 L20.4399,26.2746 C20.43,22.2393 18.6322,20.4503 15.4937,20.458 C12.3551,20.4657 10.5661,22.2635 10.576,26.2988 L10.6155,42.4397 L2.54505,42.4595 L2.44836,3.00378 L2,3.00488 Z" id="Path" fill="#FFFFFF"></path>
                <path d="M12.0705,2.98021 L12.0656,0.98021 L10.0656,0.98511 L4.44346,0.99889 L2.44346,1.00379 L1.9951,1.00489 L2,3.00488 L0.44837,3.00869 L0.54505,42.4644 L0.54995,44.4644 L2.54995,44.4595 L10.6204,44.4397 L12.6204,44.4348 L12.6155,42.4348 L12.576,26.2939 C12.5717,24.5307 12.9663,23.6327 13.3571,23.1876 C13.7065,22.7896 14.3115,22.4609 15.4986,22.458 C16.6856,22.4551 17.2922,22.7808 17.6436,23.1771 C18.0365,23.6202 18.4356,24.5164 18.4399,26.2795 L18.4795,42.4205 L18.4844,44.4205 L20.4844,44.4156 L28.5548,44.3958 L30.5548,44.3909 L30.5499,42.3909 L30.5038,23.5597 C30.4947,19.8579 29.4978,16.6345 27.3829,14.3196 C25.2438,11.9781 22.192,10.8194 18.6086,10.8282 C15.9692,10.8346 13.8226,11.6417 12.0945,12.7744 L12.0705,2.98021 Z" id="Path" stroke-opacity="0.17" stroke="#000000" stroke-width="4"></path>
                <path d="M33.461,33.8646 C33.4456,27.5875 38.3699,24.4369 45.0953,24.4204 C47.7855,24.4138 50.0284,24.8567 52.2724,25.7479 L52.2713,25.2996 C52.2625,21.7127 50.0163,19.9248 45.981,19.9346 C42.8425,19.9423 40.6018,20.3962 37.9138,21.2995 L35.6567,15.0279 C38.7919,13.6752 41.9282,12.7708 46.8602,12.7587 C51.3438,12.7477 54.4856,14.0851 56.7318,15.873 C58.9791,18.1093 59.8835,21.2457 59.8934,25.2809 L59.934,41.8702 L51.8636,41.89 L51.8559,38.7515 C50.0679,40.9977 46.9327,42.3505 43.3458,42.3593 C37.9666,42.8208 33.4753,39.6933 33.461,33.8646 Z M52.2877,32.025 L52.2845,30.6799 C50.9383,30.2348 49.1437,29.7909 46.9019,29.7964 C43.315,29.8052 41.0765,31.1557 41.0831,33.8459 C41.0886,36.0877 42.8854,37.4284 45.5755,37.4218 C50.058,36.9624 52.2954,35.1635 52.2877,32.025 Z" id="Shape" fill="#FFFFFF" fill-rule="nonzero"></path>
                <path d="M49.3516,22.8013 C49.3545,22.8038 49.3574,22.8062 49.3604,22.8087 C48.0159,22.546 46.6126,22.4167 45.0904,22.4204 C41.4502,22.4294 38.0639,23.2829 35.5396,25.2029 C32.9425,27.1783 31.4519,30.1414 31.461,33.8695 C31.4695,37.336 32.8312,40.1643 35.1342,42.0261 C37.382,43.8433 40.3551,44.605 43.4335,44.3588 C45.748,44.3413 47.9705,43.8274 49.8659,42.8573 L49.8685,43.8949 L51.8685,43.89 L59.9389,43.8702 L61.9389,43.8653 L61.934,41.8653 L61.8934,25.276 C61.8828,20.9691 60.9163,17.2156 58.1425,14.4554 L58.064,14.3772 L57.9774,14.3082 C55.3642,12.2282 51.7779,10.7466 46.8553,10.7587 C41.6184,10.7715 38.2149,11.7459 34.8643,13.1916 L33.1382,13.9364 L33.7748,15.7052 L36.032,21.9768 L36.695,23.819 L38.5509,23.1953 C41.0651,22.3504 43.0919,21.9417 45.9859,21.9346 C47.7473,21.9303 48.7821,22.3242 49.3516,22.8013 Z M46.9068,31.7964 C48.1998,31.7932 49.3235,31.9597 50.2854,32.1878 C50.2549,33.1222 49.928,33.7146 49.3622,34.1694 C48.6821,34.7162 47.4716,35.2045 45.4752,35.4213 C44.4949,35.4082 43.8811,35.1568 43.5544,34.9013 C43.2703,34.6792 43.0844,34.3721 43.0831,33.841 C43.0814,33.1471 43.3212,32.77 43.7585,32.477 C44.3072,32.1092 45.3149,31.8003 46.9068,31.7964 Z" id="Shape" stroke-opacity="0.17" stroke="#000000" stroke-width="4"></path>
                <path d="M67.0386,13.6058 L75.1091,13.5861 L75.119,17.6213 C76.9059,14.9268 80.04,13.1256 84.0752,13.1157 C90.8006,13.0993 97.0909,18.4642 97.1139,27.8798 C97.137,37.2953 90.8732,42.691 84.1478,42.7075 C79.6641,42.7185 76.9696,40.9316 75.1696,38.2459 L75.2003,50.8 L67.1298,50.8198 L67.0386,13.6058 Z M89.4918,27.8984 C89.4797,22.9665 86.3335,19.8356 82.2983,19.8455 C78.263,19.8554 75.1322,23.0016 75.1443,27.9336 C75.1564,32.8656 78.3026,35.9964 82.3378,35.9865 C86.3731,35.9766 89.5039,32.8304 89.4918,27.8984 Z" id="Shape" fill="#FFFFFF" fill-rule="nonzero"></path>
                <path d="M67.0337,11.6059 L65.0337,11.6108 L65.0386,13.6107 L65.1298,50.8247 L65.1347,52.8246 L67.1347,52.8197 L75.2052,52.8 L77.2052,52.7951 L77.2003,50.7951 L77.1811,42.9499 C77.3525,43.0543 77.5282,43.1548 77.7084,43.2512 C79.5063,44.2136 81.6376,44.7137 84.1527,44.7075 C92.0673,44.6881 99.139,38.3083 99.114,27.8749 C99.088,17.4414 91.985,11.0963 84.0703,11.1157 C81.4191,11.1222 79.0547,11.8051 77.1077,12.9965 L77.1042,11.5812 L75.1042,11.5861 L67.0337,11.6059 Z M82.3032,21.8455 C83.781,21.8419 85.0355,22.4034 85.9352,23.3765 C86.8404,24.3557 87.4868,25.8657 87.4918,27.9033 C87.4968,29.941 86.8578,31.4542 85.9574,32.4377 C85.0625,33.4152 83.8108,33.9829 82.3329,33.9865 C80.8551,33.9901 79.6006,33.4286 78.7009,32.4555 C77.7957,31.4764 77.1493,29.9663 77.1443,27.9287 C77.1393,25.8911 77.7783,24.3779 78.6787,23.3943 C79.5736,22.4168 80.8253,21.8491 82.3032,21.8455 Z" id="Shape" stroke-opacity="0.17" stroke="#000000" stroke-width="4"></path>
                <path d="M103.356,13.5171 L111.426,13.4973 L111.436,17.5325 C113.223,14.838 116.357,13.0368 120.392,13.0269 C127.118,13.0105 133.408,18.3754 133.431,27.791 C133.454,37.2065 127.19,42.6022 120.465,42.6187 C115.981,42.6297 113.287,40.8429 111.487,38.1571 L111.518,50.7112 L103.447,50.731 L103.356,13.5171 Z M125.809,27.8096 C125.797,22.8777 122.651,19.7469 118.615,19.7567 C114.58,19.7666 111.449,22.9128 111.461,27.8448 C111.474,32.7768 114.62,35.9076 118.655,35.8977 C122.69,35.8878 125.821,32.7416 125.809,27.8096 Z" id="Shape" fill="#FFFFFF" fill-rule="nonzero"></path>
                <path d="M103.351,11.5171 L101.351,11.522 L101.356,13.522 L101.447,50.7359 L101.452,52.7359 L103.452,52.731 L111.522,52.7112 L113.522,52.7063 L113.517,50.7063 L113.498,42.8611 C113.67,42.9655 113.845,43.066 114.026,43.1624 C115.823,44.1248 117.955,44.6249 120.47,44.6187 C128.385,44.5993 135.457,38.2195 135.431,27.7861 C135.406,17.3526 128.302,11.0076 120.388,11.027 C117.736,11.0334 115.372,11.7163 113.425,12.9077 L113.421,11.4924 L111.421,11.4973 L103.351,11.5171 Z M118.62,21.7567 C120.098,21.7531 121.353,22.3146 122.252,23.2877 C123.158,24.2669 123.804,25.7769 123.809,27.8146 C123.814,29.8522 123.175,31.3654 122.275,32.349 C121.38,33.3265 120.128,33.8941 118.65,33.8977 C117.172,33.9013 115.918,33.3398 115.018,32.3667 C114.113,31.3876 113.466,29.8775 113.461,27.8399 C113.456,25.8023 114.095,24.2891 114.996,23.3055 C115.891,22.328 117.143,21.7604 118.62,21.7567 Z" id="Shape" stroke-opacity="0.17" stroke="#000000" stroke-width="4"></path>
                <path d="M138.363,27.7788 C138.343,19.7084 144.156,12.9687 152.674,12.9478 C162.09,12.9247 166.592,20.5359 166.612,28.6063 C166.613,29.0547 166.615,29.9514 166.618,30.8481 L146.441,30.8976 C147.347,34.4823 150.043,36.7175 153.629,36.7087 C156.32,36.7021 158.559,35.7999 160.795,33.5526 L165.289,37.5769 C162.606,40.722 158.577,42.9737 153.645,42.9857 C144.676,42.5593 138.385,36.746 138.363,27.7788 Z M158.982,25.4865 C158.525,21.9007 156.277,19.2161 152.69,19.2248 C149.103,19.2336 147.315,21.4798 146.428,25.5173 L158.982,25.4865 Z" id="Shape" fill="#FFFFFF" fill-rule="nonzero"></path>
                <path d="M166.622,32.8481 L168.622,32.8432 L168.618,30.8432 L168.618,30.838 L168.618,30.8327 L168.618,30.8275 L168.617,30.8222 L168.617,30.817 L168.617,30.8117 L168.617,30.8065 L168.617,30.8012 L168.617,30.796 L168.617,30.7907 L168.617,30.7855 L168.617,30.7802 L168.617,30.7749 L168.617,30.7697 L168.617,30.7644 L168.617,30.7592 L168.617,30.7539 L168.617,30.7487 L168.617,30.7434 L168.617,30.7382 L168.617,30.7329 L168.617,30.7277 L168.617,30.7224 L168.617,30.7172 L168.617,30.7119 L168.617,30.7067 L168.617,30.7015 L168.617,30.6962 L168.617,30.691 L168.617,30.6857 L168.617,30.6805 L168.617,30.6752 L168.617,30.67 L168.617,30.6647 L168.617,30.6595 L168.617,30.6543 L168.617,30.649 L168.617,30.6438 L168.617,30.6385 L168.617,30.6333 L168.617,30.6281 L168.617,30.6228 L168.617,30.6176 L168.617,30.6123 L168.617,30.6071 L168.617,30.6019 L168.617,30.5966 L168.617,30.5914 L168.617,30.5862 L168.617,30.581 L168.617,30.5757 L168.617,30.5705 L168.617,30.5653 L168.617,30.56 L168.617,30.5548 L168.617,30.5496 L168.617,30.5444 L168.617,30.5392 L168.617,30.5339 L168.617,30.5287 L168.617,30.5235 L168.617,30.5183 L168.617,30.5131 L168.617,30.5079 L168.617,30.5026 L168.617,30.4974 L168.617,30.4922 L168.617,30.487 L168.617,30.4818 L168.617,30.4766 L168.617,30.4714 L168.617,30.4662 L168.617,30.461 L168.617,30.4558 L168.617,30.4506 L168.617,30.4454 L168.617,30.4402 L168.617,30.435 L168.617,30.4298 L168.617,30.4246 L168.617,30.4194 L168.616,30.4142 L168.616,30.4091 L168.616,30.4039 L168.616,30.3987 L168.616,30.3935 L168.616,30.3883 L168.616,30.3832 L168.616,30.378 L168.616,30.3728 L168.616,30.3676 L168.616,30.3625 L168.616,30.3573 L168.616,30.3521 L168.616,30.347 L168.616,30.3418 L168.616,30.3366 L168.616,30.3315 L168.616,30.3263 L168.616,30.3212 L168.616,30.316 L168.616,30.3109 L168.616,30.3057 L168.616,30.3006 L168.616,30.2954 L168.616,30.2903 L168.616,30.2851 L168.616,30.28 L168.616,30.2749 L168.616,30.2697 L168.616,30.2646 L168.616,30.2595 L168.616,30.2543 L168.616,30.2492 L168.616,30.2441 L168.616,30.239 L168.616,30.2339 L168.616,30.2287 L168.616,30.2236 L168.616,30.2185 L168.616,30.2134 L168.616,30.2083 L168.616,30.2032 L168.616,30.1981 L168.616,30.193 L168.616,30.1879 L168.616,30.1828 L168.616,30.1777 L168.616,30.1726 L168.616,30.1675 L168.616,30.1625 L168.616,30.1574 L168.616,30.1523 L168.616,30.1472 L168.616,30.1421 L168.616,30.1371 L168.616,30.132 L168.616,30.1269 L168.616,30.1219 L168.616,30.1168 L168.616,30.1118 L168.616,30.1067 L168.616,30.1017 L168.616,30.0966 L168.616,30.0916 L168.616,30.0865 L168.616,30.0815 L168.616,30.0765 L168.616,30.0714 L168.616,30.0664 L168.616,30.0614 L168.616,30.0563 L168.616,30.0513 L168.616,30.0463 L168.616,30.0413 L168.616,30.0363 L168.616,30.0313 L168.616,30.0263 L168.616,30.0213 L168.616,30.0163 L168.616,30.0113 L168.615,30.0063 L168.615,30.0013 L168.615,29.9963 L168.615,29.9913 L168.615,29.9863 L168.615,29.9814 L168.615,29.9764 L168.615,29.9714 L168.615,29.9664 L168.615,29.9615 L168.615,29.9565 L168.615,29.9516 L168.615,29.9466 L168.615,29.9417 L168.615,29.9367 L168.615,29.9318 L168.615,29.9268 L168.615,29.9219 L168.615,29.917 L168.615,29.912 L168.615,29.9071 L168.615,29.9022 L168.615,29.8973 L168.615,29.8924 L168.615,29.8875 L168.615,29.8826 L168.615,29.8777 L168.615,29.8728 L168.615,29.8679 L168.615,29.863 L168.615,29.8581 L168.615,29.8532 L168.615,29.8483 L168.615,29.8434 L168.615,29.8386 L168.615,29.8337 L168.615,29.8288 L168.615,29.824 L168.615,29.8191 L168.615,29.8143 L168.615,29.8094 L168.615,29.8046 L168.615,29.7997 L168.615,29.7949 L168.615,29.7901 L168.615,29.7853 L168.615,29.7804 L168.615,29.7756 L168.615,29.7708 L168.615,29.766 L168.615,29.7612 L168.615,29.7564 L168.615,29.7516 L168.615,29.7468 L168.615,29.742 L168.615,29.7372 L168.615,29.7324 L168.615,29.7277 L168.615,29.7229 L168.615,29.7181 L168.615,29.7134 L168.615,29.7086 L168.615,29.7038 L168.615,29.6991 L168.615,29.6944 L168.615,29.6896 L168.615,29.6849 L168.615,29.6801 L168.615,29.6754 L168.615,29.6707 L168.615,29.666 L168.615,29.6613 L168.615,29.6566 L168.615,29.6519 L168.615,29.6472 L168.615,29.6425 L168.615,29.6378 L168.615,29.6331 L168.615,29.6284 L168.615,29.6237 L168.615,29.6191 L168.615,29.6144 L168.615,29.6097 L168.615,29.6051 L168.614,29.6004 L168.614,29.5958 L168.614,29.5912 L168.614,29.5865 L168.614,29.5819 L168.614,29.5773 L168.614,29.5726 L168.614,29.568 L168.614,29.5634 L168.614,29.5588 L168.614,29.5542 L168.614,29.5496 L168.614,29.545 L168.614,29.5404 L168.614,29.5359 L168.614,29.5313 L168.614,29.5267 L168.614,29.5222 L168.614,29.5176 L168.614,29.513 L168.614,29.5085 L168.614,29.504 L168.614,29.4994 L168.614,29.4949 L168.614,29.4904 L168.614,29.4858 L168.614,29.4813 L168.614,29.4768 L168.614,29.4723 L168.614,29.4678 L168.614,29.4633 L168.614,29.4588 L168.614,29.4543 L168.614,29.4499 L168.614,29.4454 L168.614,29.4409 L168.614,29.4365 L168.614,29.432 L168.614,29.4276 L168.614,29.4231 L168.614,29.4187 L168.614,29.4143 L168.614,29.4098 L168.614,29.4054 L168.614,29.401 L168.614,29.3966 L168.614,29.3922 L168.614,29.3878 L168.614,29.3834 L168.614,29.379 L168.614,29.3746 L168.614,29.3703 L168.614,29.3659 L168.614,29.3615 L168.614,29.3572 L168.614,29.3528 L168.614,29.3485 L168.614,29.3441 L168.614,29.3398 L168.614,29.3355 L168.614,29.3312 L168.614,29.3269 L168.614,29.3226 L168.614,29.3183 L168.614,29.314 L168.614,29.3097 L168.614,29.3054 L168.614,29.3011 L168.614,29.2968 L168.614,29.2926 L168.614,29.2883 L168.614,29.2841 L168.614,29.2798 L168.614,29.2756 L168.614,29.2714 L168.614,29.2671 L168.614,29.2629 L168.614,29.2587 L168.614,29.2545 L168.614,29.2503 L168.614,29.2461 L168.614,29.2419 L168.614,29.2377 L168.614,29.2336 L168.614,29.2294 L168.614,29.2252 L168.614,29.2211 L168.614,29.2169 L168.614,29.2128 L168.614,29.2087 L168.614,29.2045 L168.614,29.2004 L168.614,29.1963 L168.613,29.1922 L168.613,29.1881 L168.613,29.184 L168.613,29.1799 L168.613,29.1759 L168.613,29.1718 L168.613,29.1677 L168.613,29.1637 L168.613,29.1596 L168.613,29.1556 L168.613,29.1515 L168.613,29.1475 L168.613,29.1435 L168.613,29.1395 L168.613,29.1354 L168.613,29.1314 L168.613,29.1275 L168.613,29.1235 L168.613,29.1195 L168.613,29.1155 L168.613,29.1115 L168.613,29.1076 L168.613,29.1036 L168.613,29.0997 L168.613,29.0958 L168.613,29.0918 L168.613,29.0879 L168.613,29.084 L168.613,29.0801 L168.613,29.0762 L168.613,29.0723 L168.613,29.0684 L168.613,29.0645 L168.613,29.0606 L168.613,29.0568 L168.613,29.0529 L168.613,29.0491 L168.613,29.0452 L168.613,29.0414 L168.613,29.0376 L168.613,29.0338 L168.613,29.0299 L168.613,29.0261 L168.613,29.0223 L168.613,29.0186 L168.613,29.0148 L168.613,29.011 L168.613,29.0072 L168.613,29.0035 L168.613,28.9997 L168.613,28.996 L168.613,28.9923 L168.613,28.9885 L168.613,28.9848 L168.613,28.9811 L168.613,28.9774 L168.613,28.9737 L168.613,28.97 L168.613,28.9663 L168.613,28.9627 L168.613,28.959 L168.613,28.9554 L168.613,28.9517 L168.613,28.9481 L168.613,28.9444 L168.613,28.9408 L168.613,28.9372 L168.613,28.9336 L168.613,28.93 L168.613,28.9264 L168.613,28.9228 L168.613,28.9192 L168.613,28.9157 L168.613,28.9121 L168.613,28.9086 L168.613,28.905 L168.613,28.9015 L168.613,28.898 L168.613,28.8945 L168.613,28.891 L168.613,28.8875 L168.613,28.884 L168.613,28.8805 L168.613,28.877 L168.613,28.8735 L168.613,28.8701 L168.613,28.8666 L168.613,28.8632 L168.613,28.8598 L168.613,28.8563 L168.613,28.8529 L168.613,28.8495 L168.613,28.8461 L168.613,28.8427 L168.613,28.8394 L168.613,28.836 L168.613,28.8326 L168.613,28.8293 L168.613,28.8259 L168.613,28.8226 L168.613,28.8193 L168.613,28.816 L168.613,28.8126 L168.613,28.8093 L168.613,28.806 L168.613,28.8028 L168.613,28.7995 L168.613,28.7962 L168.613,28.793 L168.613,28.7897 L168.613,28.7865 L168.612,28.7833 L168.612,28.78 L168.612,28.7768 L168.612,28.7736 L168.612,28.7704 L168.612,28.7672 L168.612,28.7641 L168.612,28.7609 L168.612,28.7577 L168.612,28.7546 L168.612,28.7515 L168.612,28.7483 L168.612,28.7452 L168.612,28.7421 L168.612,28.739 L168.612,28.7359 L168.612,28.7328 L168.612,28.7298 L168.612,28.7267 L168.612,28.7236 L168.612,28.7206 L168.612,28.7176 L168.612,28.7145 L168.612,28.7115 L168.612,28.7085 L168.612,28.7055 L168.612,28.7025 L168.612,28.6995 L168.612,28.6966 L168.612,28.6936 L168.612,28.6907 L168.612,28.6877 L168.612,28.6848 L168.612,28.6819 L168.612,28.679 L168.612,28.6761 L168.612,28.6732 L168.612,28.6703 L168.612,28.6674 L168.612,28.6645 L168.612,28.6617 L168.612,28.6588 L168.612,28.656 L168.612,28.6532 L168.612,28.6504 L168.612,28.6476 L168.612,28.6448 L168.612,28.642 L168.612,28.6392 L168.612,28.6365 L168.612,28.6337 L168.612,28.631 L168.612,28.6282 L168.612,28.6255 L168.612,28.6228 L168.612,28.6201 L168.612,28.6174 L168.612,28.6147 L168.612,28.612 L168.612,28.6094 L168.612,28.6067 L168.612,28.6041 L168.612,28.6014 C168.601,24.2242 167.378,19.8364 164.734,16.4998 C162.044,13.1053 157.982,10.9348 152.67,10.9478 C142.926,10.9717 136.341,18.7322 136.363,27.7837 C136.375,32.7575 138.139,36.9828 141.253,40.0175 C144.354,43.0385 148.658,44.7509 153.55,44.9835 L153.6,44.9859 L153.65,44.9857 C159.226,44.9721 163.79,42.4159 166.811,38.8747 L168.077,37.3894 L166.623,36.087 L163.017,32.857 L166.622,32.8481 Z M149.581,32.8899 L158.592,32.8678 C156.995,34.2118 155.452,34.7042 153.624,34.7087 C151.957,34.7128 150.556,34.0792 149.581,32.8899 Z M152.695,21.2248 C153.945,21.2218 154.878,21.6708 155.563,22.3888 C155.854,22.6934 156.115,23.0631 156.335,23.493 L149.165,23.5106 C149.421,22.9686 149.702,22.5498 150.002,22.2322 C150.578,21.6207 151.368,21.2281 152.695,21.2248 Z" id="Shape" stroke-opacity="0.17" stroke="#000000" stroke-width="4"></path>
                <path d="M172.852,13.3467 L180.922,13.327 L180.932,17.3622 C182.72,15.116 185.405,12.8676 189.44,12.8577 C195.717,12.8423 199.314,16.8688 199.33,23.5942 L199.376,42.4253 L191.306,42.4451 L191.266,26.3041 C191.256,22.2689 189.458,20.4798 186.32,20.4875 C183.181,20.4952 181.392,22.2931 181.402,26.3283 L181.442,42.4693 L172.923,42.4902 L172.852,13.3467 Z" id="Path" fill="#FFFFFF"></path>
                <path d="M172.847,11.3467 L170.847,11.3516 L170.852,13.3516 L170.923,42.4951 L170.928,44.4951 L172.928,44.4902 L181.447,44.4693 L183.447,44.4644 L183.442,42.4644 L183.402,26.3234 C183.398,24.5603 183.793,23.6622 184.183,23.2172 C184.533,22.8192 185.138,22.4904 186.325,22.4875 C187.512,22.4846 188.119,22.8104 188.47,23.2067 C188.863,23.6498 189.262,24.5459 189.266,26.309 L189.306,42.45 L189.311,44.45 L191.311,44.4451 L199.381,44.4253 L201.381,44.4204 L201.376,42.4204 L201.33,23.5893 C201.321,19.8874 200.324,16.6641 198.209,14.3492 C196.07,12.0077 193.018,10.8489 189.435,10.8577 C186.796,10.8642 184.649,11.6713 182.921,12.804 L182.917,11.3221 L180.917,11.327 L172.847,11.3467 Z" id="Path" stroke-opacity="0.17" stroke="#000000" stroke-width="4"></path>
                <path d="M204.297,37.9296 L207.871,32.5405 C211.015,34.7746 214.157,36.112 216.847,36.1054 C219.089,36.0999 220.432,35.1999 220.428,33.8548 C220.424,32.0614 217.733,31.6196 214.592,30.7306 C210.553,29.3954 206.065,27.6129 206.051,21.7842 C206.037,15.9556 210.961,12.8049 216.79,12.7907 C220.377,12.7819 224.415,14.1171 227.558,15.9028 L224.434,21.7392 C221.739,19.9523 218.599,19.0633 216.805,19.0677 C215.012,19.0721 213.669,19.9721 213.672,21.3172 C213.677,23.1106 216.368,23.5524 219.51,24.8898 C223.548,26.225 228.036,28.0074 228.049,33.3878 C228.065,39.6648 223.14,42.8154 216.863,42.8308 C212.379,42.3934 207.892,41.0593 204.297,37.9296 Z" id="Path" fill="#FFFFFF"></path>
                <path d="M202.63,36.8243 L201.661,38.2861 L202.984,39.438 C207.001,42.9352 211.941,44.3602 216.669,44.8214 L216.769,44.831 L216.868,44.8308 C220.311,44.8224 223.587,43.9568 226.048,42.0331 C228.572,40.0599 230.058,37.1072 230.049,33.3829 C230.041,30.0175 228.583,27.6731 226.528,26.0518 C224.615,24.5423 222.204,23.6759 220.215,23.0167 C219.454,22.6952 218.723,22.4241 218.087,22.1884 C218.047,22.1736 218.007,22.1589 217.968,22.1444 C217.258,21.8809 216.709,21.6733 216.266,21.4649 C216.086,21.38 215.951,21.3078 215.85,21.2488 C216.04,21.1592 216.356,21.0688 216.81,21.0677 C218.135,21.0645 220.896,21.7927 223.329,23.406 L225.16,24.6205 L226.197,22.6831 L229.321,16.8467 L230.242,15.1273 L228.546,14.1639 C225.189,12.2565 220.809,10.7808 216.785,10.7907 C213.537,10.7986 210.388,11.6779 208.004,13.5265 C205.566,15.4166 204.042,18.2422 204.051,21.7891 C204.06,25.3202 205.469,27.7799 207.541,29.4864 C209.493,31.0933 211.962,31.9675 213.964,32.6295 L214.005,32.6431 L214.047,32.655 C214.564,32.8013 215.034,32.9277 215.464,33.0433 C216.48,33.3165 217.27,33.5289 217.915,33.7987 C218.012,33.8396 218.095,33.8771 218.166,33.9111 C217.905,34.0092 217.478,34.1038 216.842,34.1054 C214.758,34.1105 212.03,33.0421 209.029,30.9102 L207.346,29.7137 L206.204,31.4352 L202.63,36.8243 Z" id="Shape" stroke-opacity="0.17" stroke="#000000" stroke-width="4"></path>
            </g>
        </g>
    </g>
</svg>