<svg width="26" height="26" viewBox="0 0 26 26" fill="none" xmlns="http://www.w3.org/2000/svg">
<path d="M13 26C5.83143 26 0 20.1686 0 13C0 5.83143 5.83143 0 13 0C20.1686 0 26 5.83143 26 13C26 17.2927 23.8829 21.3067 20.3357 23.7343C19.9112 24.0261 19.3302 23.9173 19.0384 23.4902C18.7465 23.0657 18.8553 22.4847 19.2824 22.1929C22.3202 20.1129 24.1376 16.6771 24.1376 12.9973C24.1376 6.85816 19.1418 1.8651 13.0053 1.8651C6.86878 1.8651 1.86776 6.86082 1.86776 13C1.86776 19.1392 6.86082 24.1322 13 24.1322C13.5147 24.1322 13.9339 24.5488 13.9339 25.0661C13.9339 25.5835 13.5147 26 13 26ZM19.9988 10.278H10.5114C9.99674 10.278 9.57755 9.86143 9.57755 9.34408C9.57755 8.82939 9.99408 8.4102 10.5114 8.4102H19.9988C20.5135 8.4102 20.9327 8.82674 20.9327 9.34408C20.9327 9.86143 20.5135 10.278 19.9988 10.278ZM19.9988 14.0108H6.00122C5.48653 14.0108 5.06735 13.5943 5.06735 13.0769C5.06735 12.5622 5.48388 12.1431 6.00122 12.1431H19.9988C20.5135 12.1431 20.9327 12.5596 20.9327 13.0769C20.9327 13.5943 20.5135 14.0108 19.9988 14.0108ZM19.9988 17.5898H14.0878C13.5731 17.5898 13.1539 17.1733 13.1539 16.6559C13.1539 16.1386 13.5704 15.722 14.0878 15.722H19.9988C20.5135 15.722 20.9327 16.1386 20.9327 16.6559C20.9327 17.1706 20.5135 17.5898 19.9988 17.5898Z" fill="white"/>
</svg>
