<svg width="30" height="30" viewBox="0 0 30 30" fill="none" xmlns="http://www.w3.org/2000/svg">
<g clip-path="url(#clip0)">
<path d="M15 29C22.732 29 29 22.732 29 15C29 7.26801 22.732 1 15 1C7.26801 1 1 7.26801 1 15C1 22.732 7.26801 29 15 29Z" fill="#7935CB"/>
<path d="M15 17.25C18.1756 17.25 20.75 14.6756 20.75 11.5C20.75 8.32436 18.1756 5.75 15 5.75C11.8244 5.75 9.25 8.32436 9.25 11.5C9.25 14.6756 11.8244 17.25 15 17.25Z" fill="white"/>
<path d="M15 37.75C20.6609 37.75 25.25 33.1609 25.25 27.5C25.25 21.8391 20.6609 17.25 15 17.25C9.33908 17.25 4.75 21.8391 4.75 27.5C4.75 33.1609 9.33908 37.75 15 37.75Z" fill="white"/>
</g>
<defs>
<clipPath id="clip0">
<rect width="30" height="30" fill="white"/>
</clipPath>
</defs>
</svg>
