<svg width="26" height="26" viewBox="0 0 26 26" fill="none" xmlns="http://www.w3.org/2000/svg">
<path d="M11.606 1.09096C9.97665 1.30075 8.72489 1.69935 7.33328 2.4546C6.13048 3.11194 5.61998 3.48258 4.66194 4.41265C3.68291 5.34972 3.02557 6.23084 2.36123 7.48959C1.59899 8.94414 1.21437 10.2868 1.03954 12.084C0.899683 13.5665 1.13745 15.4407 1.64794 16.9302C1.85074 17.5036 2.43116 18.7554 2.6899 19.168L2.85773 19.4337L2.70389 19.7344C2.14444 20.8603 3.23536 22.0841 4.44515 21.6855C5.07453 21.4757 5.52208 20.6085 5.31229 20.0071C5.06753 19.3008 4.54306 18.9232 3.8927 18.9791C3.6899 18.9931 3.46613 19.0281 3.38221 19.0561C3.25634 19.098 3.1934 19.0071 2.80878 18.2449C1.99759 16.6295 1.61997 15.2169 1.55703 13.5036C1.51507 12.5176 1.59899 11.3987 1.75983 10.7064C2.09549 9.23785 2.67591 7.85322 3.38221 6.79028C3.599 6.4686 3.77382 6.19587 3.77382 6.1749C3.77382 6.16091 4.00459 5.87419 4.28431 5.54552C4.75285 4.98608 5.91369 3.90216 6.15145 3.79726C6.2074 3.76929 6.52908 3.56649 6.86474 3.34271C8.59202 2.19586 10.8158 1.5455 13.0046 1.5455C14.655 1.5455 16.5781 1.97208 17.8578 2.60845L18.2704 2.81824L18.3963 2.6574C18.4662 2.56649 18.5291 2.4546 18.5291 2.41264C18.5291 2.32872 17.2144 1.7483 16.5711 1.5525C15.4732 1.22382 13.9067 0.993054 12.8298 1.00005C12.5641 1.00005 12.0116 1.04201 11.606 1.09096ZM4.45914 19.6435C5.0046 20.0001 4.8997 20.9162 4.28431 21.168C3.92767 21.3218 3.58501 21.2379 3.30529 20.9372C2.59899 20.1889 3.58501 19.0771 4.45914 19.6435Z" fill="white" stroke="white"/>
<path d="M22.5149 5.18893C22.1932 5.31481 21.8716 5.61551 21.7387 5.90922C21.3121 6.84628 21.9835 7.90923 23.0044 7.90923C23.2562 7.90923 23.2912 7.9372 23.417 8.17496C23.7877 8.90224 24.2002 10.3218 24.3681 11.4757C24.5289 12.5246 24.48 14.2869 24.2702 15.2169C23.9625 16.5736 23.431 17.9862 22.9695 18.6925C22.8716 18.8393 22.7946 18.9722 22.7946 18.9932C22.7946 19.175 21.7527 20.4827 21.1093 21.1261C20.389 21.8324 19.1653 22.8044 18.9834 22.8044C18.9625 22.8044 18.8296 22.8813 18.6827 22.9792C18.2981 23.231 16.8995 23.8394 16.3261 24.0002C15.361 24.2729 14.5988 24.4058 13.8086 24.4548L13.0044 24.5037V24.7834V25.0562L13.5499 25.0142C14.6408 24.9233 14.8715 24.8883 15.6548 24.7135C19.1653 23.9443 22.2352 21.5037 23.7807 18.2589C24.2702 17.2379 24.417 16.8253 24.6688 15.7764C24.9205 14.7135 24.9695 14.3009 24.9975 13.2589C25.0324 11.4967 24.6688 9.67846 23.9625 8.11202L23.7807 7.71342L23.9835 7.52461C24.6828 6.85328 24.5009 5.69243 23.6198 5.24488C23.3401 5.09802 22.8086 5.07705 22.5149 5.18893ZM23.445 5.73439C23.7037 5.83229 23.9415 6.35677 23.8856 6.69244C23.8296 6.97915 23.5009 7.31482 23.2282 7.37076C22.9974 7.41971 22.6128 7.3288 22.431 7.18195C22.2562 7.04908 22.0884 6.60852 22.1303 6.39174C22.1723 6.11901 22.3821 5.86726 22.6618 5.72041C22.8995 5.59453 23.0814 5.60152 23.445 5.73439Z" fill="white" stroke="white"/>
<path d="M12.1656 7.05605C11.8019 7.105 11.1376 7.29381 10.697 7.47563C9.69703 7.88123 8.94877 8.44067 8.28443 9.26585C6.25645 11.7764 6.51519 15.4057 8.86485 17.5596C9.33339 17.9862 9.38933 18.0281 9.66206 18.203C10.704 18.8743 11.739 19.175 13.0117 19.182C15.3614 19.189 17.4103 17.9092 18.4803 15.7764C18.9139 14.9092 19.0537 14.2449 19.0537 13.084C19.0467 12.2519 19.0187 11.9722 18.8929 11.5246C18.5222 10.2169 17.788 9.10501 16.781 8.32878C15.4663 7.3078 13.8019 6.84626 12.1656 7.05605ZM14.1586 7.66445C15.1866 7.88123 16.0957 8.37074 16.8859 9.13998C17.2985 9.54557 17.3614 9.6225 17.6551 10.0491C18.3824 11.091 18.76 12.8603 18.4943 14.0211C18.2355 15.189 17.8789 15.9512 17.2215 16.7414L16.9908 17.0141V16.2799C16.9908 15.8953 16.8929 15.168 16.6621 14.7484C16.5922 14.6295 16.4943 14.4617 16.4453 14.3778C16.3264 14.154 15.6831 13.5875 15.3894 13.4407C15.2495 13.3708 14.9698 13.2589 14.767 13.1889C14.4243 13.0771 14.4033 13.0631 14.5012 12.9512C14.5572 12.8882 14.6901 12.6505 14.795 12.4267C14.9488 12.084 14.9768 11.9512 14.9488 11.5596C14.8859 10.4617 14.0677 9.68543 12.9907 9.69942C11.5572 9.7204 10.6271 11.168 11.2285 12.4547C11.3264 12.6645 11.4523 12.8882 11.5082 12.9582C11.6061 13.0631 11.5851 13.084 11.2425 13.182C10.3124 13.4477 9.39633 14.3498 9.16556 15.2239C9.04667 15.6785 9.02569 15.9162 9.02569 16.2589L9.0187 16.9512L8.83688 16.7834C8.50122 16.4757 8.00471 15.6365 7.77394 15.0071C7.05366 13.0001 7.52219 10.7763 9.01171 9.2169C9.67605 8.5176 11.0117 7.79731 11.9558 7.62948C12.4942 7.53857 13.6131 7.55256 14.1586 7.66445ZM13.6061 10.3498C14.1936 10.6155 14.5222 11.2729 14.3963 11.9302C14.3194 12.3358 14.2495 12.4547 13.9558 12.7204C13.6551 12.9861 13.2145 13.112 12.8019 13.0561C11.6271 12.8952 11.1656 11.4057 12.0397 10.5945C12.4523 10.2099 13.0747 10.112 13.6061 10.3498ZM13.5502 14.2169C14.1796 13.5456 14.3054 13.5106 14.9977 13.8463C15.5222 14.091 15.9698 14.5386 16.2145 15.0421C16.3964 15.4197 16.3964 15.4477 16.4173 16.2589L16.4453 17.5036L16.2775 17.6225C16.0677 17.7694 15.9488 17.8393 15.5992 18.0351L15.3124 18.189L14.8229 18.3778L14.5292 18.4617C13.6411 18.6995 12.0187 18.5806 12.0187 18.5806C11.5 18.5 11.5 18.5 10.697 18.196L10.2984 17.9792C10.0747 17.8603 9.8229 17.7064 9.73199 17.6295L9.57115 17.4967L9.59213 16.2519L9.61311 15.4267L9.81591 15.0211C10.1656 14.3428 10.8858 13.7834 11.6061 13.6435C11.8439 13.5945 11.8719 13.6085 12.4313 14.1959L13.0047 14.7973L13.5502 14.2169Z" fill="white" stroke="white"/>
</svg>
