<svg width="57" height="56" viewBox="0 0 57 56" fill="none" xmlns="http://www.w3.org/2000/svg">
<g clip-path="url(#clip0)">
<path d="M28.5 0C32.2917 0 35.9151 0.740385 39.3702 2.22115C42.8253 3.70192 45.8037 5.69311 48.3053 8.19471C50.8069 10.6963 52.7981 13.6747 54.2789 17.1298C55.7596 20.5849 56.5 24.2083 56.5 28C56.5 31.7917 55.7596 35.4207 54.2789 38.887C52.7981 42.3534 50.8069 45.3317 48.3053 47.8221C45.8037 50.3125 42.8253 52.2981 39.3702 53.7789C35.9151 55.2596 32.2917 56 28.5 56C24.7083 56 21.0849 55.2596 17.6298 53.7789C14.1747 52.2981 11.1963 50.3125 8.69471 47.8221C6.19311 45.3317 4.20192 42.3534 2.72115 38.887C1.24038 35.4207 0.5 31.7917 0.5 28C0.5 24.2083 1.24038 20.5849 2.72115 17.1298C4.20192 13.6747 6.19311 10.6963 8.69471 8.19471C11.1963 5.69311 14.1747 3.70192 17.6298 2.22115C21.0849 0.740385 24.7083 0 28.5 0ZM20.9279 42.5721C23.6651 40.0817 26.1891 38.8141 28.5 38.7692C30.7885 38.7692 33.3125 40.0369 36.0721 42.5721C36.5208 42.9984 37.02 43.1611 37.5697 43.0601C38.1194 42.9591 38.5513 42.6282 38.8654 42.0673C39.5385 40.9455 39.4038 39.9471 38.4615 39.0721C35.141 35.9984 31.8205 34.4615 28.5 34.4615C25.1795 34.4615 21.859 35.9984 18.5385 39.0721C17.5962 39.9696 17.4615 40.9679 18.1346 42.0673C18.4712 42.6282 18.9087 42.9591 19.4471 43.0601C19.9856 43.1611 20.4792 42.9984 20.9279 42.5721ZM13.4231 23.6923C13.4231 24.8814 13.8438 25.8966 14.6851 26.738C15.5264 27.5793 16.5417 28 17.7308 28C18.9199 28 19.9351 27.5793 20.7764 26.738C21.6178 25.8966 22.0385 24.8814 22.0385 23.6923C22.0385 22.5032 21.6178 21.488 20.7764 20.6466C19.9351 19.8053 18.9199 19.3846 17.7308 19.3846C16.5417 19.3846 15.5264 19.8053 14.6851 20.6466C13.8438 21.488 13.4231 22.5032 13.4231 23.6923ZM39.2692 28C40.4583 28 41.4736 27.5793 42.3149 26.738C43.1563 25.8966 43.5769 24.8814 43.5769 23.6923C43.5769 22.5032 43.1563 21.488 42.3149 20.6466C41.4736 19.8053 40.4583 19.3846 39.2692 19.3846C38.0801 19.3846 37.0649 19.8053 36.2236 20.6466C35.3822 21.488 34.9615 22.5032 34.9615 23.6923C34.9615 24.8814 35.3822 25.8966 36.2236 26.738C37.0649 27.5793 38.0801 28 39.2692 28Z" fill="#C4C4C4"/>
</g>
<defs>
<clipPath id="clip0">
<rect x="0.5" width="56" height="56" fill="white"/>
</clipPath>
</defs>
</svg>
