<svg width="63" height="105" viewBox="0 0 63 105" fill="none" xmlns="http://www.w3.org/2000/svg">
<path fill-rule="evenodd" clip-rule="evenodd" d="M48.8318 36.3103C47.6717 36.3103 46.5934 36.6577 45.6972 37.2532C44.9268 35.0773 42.8359 33.5172 40.3773 33.5172C39.3507 33.5172 38.3881 33.7892 37.5591 34.2645V22.3448C37.5591 19.2596 35.0356 16.7586 31.9227 16.7586C28.8098 16.7586 26.2864 19.2596 26.2864 22.3448V49.6026L23.441 44.7181C21.8845 42.0463 18.4374 41.1308 15.7416 42.6734C13.0458 44.216 12.1221 47.6325 13.6785 50.3043C14.037 50.9197 15.4174 53.2868 15.7043 53.7817C17.8979 57.5663 18.6571 63.9792 20.8605 67.7687C23.935 73.0563 29.0816 80.0226 29.3704 80.4198C29.8254 81.0456 30.7061 81.1873 31.3374 80.7364C31.9688 80.2854 32.1118 79.4126 31.6568 78.7869C31.3732 78.3969 25.826 70.7445 23.2957 66.3648C21.5771 63.3903 20.5525 56.4801 18.1449 52.3852C17.8554 51.8928 16.4776 49.5231 16.1191 48.9077C15.3409 47.5718 15.8027 45.8636 17.1507 45.0923C18.4986 44.321 20.2222 44.7787 21.0004 46.1147L26.2732 55.1662C26.7666 56.1907 29.1045 56.1389 29.1045 54.4654V22.3448C29.1045 20.8022 30.3663 19.5517 31.9227 19.5517C33.4792 19.5517 34.7409 20.8022 34.7409 22.3448V46.0861C34.7409 46.8574 35.3718 47.4827 36.15 47.4827C36.9282 47.4827 37.5591 46.8574 37.5591 46.0861V39.1034C37.5591 37.5608 38.8209 36.3103 40.3773 36.3103C41.9337 36.3103 43.1955 37.5608 43.1955 39.1034V46.0861C43.1955 46.8574 43.8263 47.4827 44.6046 47.4827C45.3828 47.4827 46.0137 46.8574 46.0137 46.0861V41.8965C46.0137 40.3539 47.2754 39.1034 48.8318 39.1034C50.3883 39.1034 51.65 40.3539 51.65 41.8965V48.8792C51.65 49.6505 52.2809 50.2758 53.0591 50.2758C53.8373 50.2758 54.4682 49.6505 54.4682 48.8792V44.6896C54.4682 43.147 55.7299 41.8965 57.2864 41.8965C58.8428 41.8965 60.1046 43.147 60.1046 44.6896V54.4654C60.1046 63.6121 54.4682 72.3282 54.4682 79.6033C54.4682 80.3746 55.0991 80.9999 55.8773 80.9999C56.6555 80.9999 57.2864 80.3746 57.2864 79.6033C57.2864 73.3344 62.9227 63.6475 62.9227 54.4654V44.6896C62.9227 41.6044 60.3993 39.1034 57.2864 39.1034C56.1263 39.1034 55.048 39.4508 54.1517 40.0463C53.3813 37.8704 51.2904 36.3103 48.8318 36.3103Z" fill="white"/>
<path fill-rule="evenodd" clip-rule="evenodd" d="M12.6082 7.97026C13.1585 8.51565 14.0506 8.51565 14.6009 7.97026C15.1512 7.42487 15.1512 6.54063 14.6009 5.99524L8.96457 0.40904C8.41428 -0.136347 7.5221 -0.136347 6.97181 0.40904L1.33545 5.99524C0.785164 6.54063 0.785164 7.42487 1.33545 7.97026C1.88573 8.51565 2.77792 8.51565 3.3282 7.97026L6.5591 4.76812V29.3275C6.5591 30.0988 7.18997 30.7241 7.96819 30.7241C8.74641 30.7241 9.37728 30.0988 9.37728 29.3275V4.76015L12.6082 7.97026Z" fill="white"/>
<path fill-rule="evenodd" clip-rule="evenodd" d="M11.6854 97.0297C12.2357 96.4844 13.1279 96.4844 13.6782 97.0297C14.2284 97.5751 14.2284 98.4594 13.6782 99.0048L8.04179 104.591C7.49151 105.136 6.59932 105.136 6.04904 104.591L0.412676 99.0048C-0.137608 98.4594 -0.137608 97.5751 0.412676 97.0297C0.96296 96.4844 1.85515 96.4844 2.40543 97.0297L5.63633 100.232V75.6724C5.63633 74.9012 6.2672 74.2759 7.04542 74.2759C7.82364 74.2759 8.45451 74.9012 8.45451 75.6724V100.24L11.6854 97.0297Z" fill="white"/>
</svg>
