<?xml version="1.0" encoding="utf-8"?>
<!-- Svg Vector Icons : http://www.onlinewebfonts.com/icon -->
<!DOCTYPE svg PUBLIC "-//W3C//DTD SVG 1.1//EN" "http://www.w3.org/Graphics/SVG/1.1/DTD/svg11.dtd">
<svg version="1.1" xmlns="http://www.w3.org/2000/svg" xmlns:xlink="http://www.w3.org/1999/xlink" x="0px" y="0px" viewBox="0 0 1000 1000" enable-background="new 0 0 1000 1000" xml:space="preserve">
<metadata> Svg Vector Icons : http://www.onlinewebfonts.com/icon </metadata>
<g><path d="M500.3,72.5c0,0-108.5,144.2-370.7,121.9L62,195.3c0,0-1.6-6.8,0-14.9c3.7-19.1,17.2-42.1,61.3-47.9s181.8,19.1,289-70.8c0,0,42.8-33.7,53-42.7c10.2-9,32.5-9,35.1-9s24.9,2.6,33.2,9c8.3,6.4,60,44,60,44s86.1,72.7,186.9,67c0,0,56.8,5.7,100.8,3.2c0,0,51.7,5.7,57.4,51.7c5.7,45.9,0,8.3,0,8.3l-67,1.3C871.6,194.4,637.5,221.8,500.3,72.5"/><path d="M62,195.3l67.6-0.8c0,0-1.9,264.8,8.3,278.8c0,0,30.6,379,362.4,455.5c0,0,305-34.5,364.9-463.2c0,0,14-178.6,6.4-271.1l67-1.3c0,0,18.5,289-45.3,444.7c0,0-97,324.1-393,352.2c0,0-283.3,0-412.2-409.6C88.2,580.4,47.3,420.1,62,195.3z"/><path d="M446.7,551l271.8-242.5c0,0,37-14,57.4,16.6c0,0,7.7,21.7,0,31.9c-7.7,10.2-282,257.8-282,257.8l-20.4,20.4c0,0-23,20.4-51,0c-28.1-20.4-169.7-151.8-169.7-151.8s-8.9-21.7,0-38.3c8.9-16.6,23-20.4,43.4-21.7c0,0,19.1,8.9,25.5,15.3C328.1,445.1,446.7,551,446.7,551z"/></g>
</svg>