<?xml version="1.0" standalone="no"?>
<!DOCTYPE svg PUBLIC "-//W3C//DTD SVG 20010904//EN"
 "http://www.w3.org/TR/2001/REC-SVG-20010904/DTD/svg10.dtd">
<svg version="1.0" xmlns="http://www.w3.org/2000/svg"
 width="217.000000pt" height="255.000000pt" viewBox="0 0 217.000000 255.000000"
 preserveAspectRatio="xMidYMid meet">
<metadata>
Created by potrace 1.16, written by Peter Selinger 2001-2019
</metadata>
<g transform="translate(0.000000,255.000000) scale(0.100000,-0.100000)"
fill="#000000" stroke="none">
<path d="M920 2379 c-235 -61 -433 -226 -530 -443 -72 -160 -86 -353 -37 -503
58 -175 202 -422 405 -697 106 -144 339 -426 351 -426 10 0 93 95 204 232 272
337 473 658 549 878 30 86 33 105 32 210 -1 197 -61 354 -196 509 -96 111
-268 212 -415 245 -101 22 -267 20 -363 -5z m140 -49 c0 -6 -7 -13 -15 -16 -8
-4 -15 -12 -15 -20 0 -7 -21 -20 -48 -28 -59 -17 -132 -53 -132 -65 0 -5 -11
-16 -24 -25 -23 -14 -26 -14 -47 3 -16 13 -20 23 -14 37 4 10 7 25 6 32 -2 15
71 48 164 72 79 21 125 25 125 10z m427 -109 c45 -23 79 -56 47 -45 -16 5 -16
4 -4 -5 8 -6 23 -8 32 -5 22 7 79 -45 132 -120 55 -78 88 -144 114 -228 24
-75 41 -233 23 -208 -6 8 -11 27 -11 41 0 36 -27 99 -43 99 -7 0 -25 11 -40
25 -15 14 -27 22 -27 17 0 -12 29 -49 30 -38 0 6 6 1 14 -9 10 -14 11 -26 4
-46 -11 -32 -23 -44 -55 -53 -18 -6 -23 -3 -23 11 0 11 -16 50 -35 89 -41 80
-46 66 -10 -25 35 -85 46 -101 72 -101 19 0 21 -3 13 -31 -5 -17 -23 -52 -40
-78 -24 -38 -30 -59 -30 -103 0 -45 -4 -58 -25 -78 -14 -13 -25 -34 -25 -47 0
-13 -7 -26 -15 -29 -8 -4 -15 -12 -15 -18 0 -28 -93 -96 -131 -96 -11 0 -35
59 -30 75 1 5 -3 27 -10 48 -11 32 -10 43 4 73 23 48 21 71 -8 106 -21 24 -24
37 -19 64 6 31 4 34 -17 34 -12 0 -31 7 -41 17 -15 14 -24 14 -57 5 -21 -7
-53 -12 -71 -12 -35 0 -90 33 -90 55 0 8 -7 18 -16 23 -13 7 -17 26 -18 81 -1
65 1 74 24 96 14 13 30 30 36 38 7 8 26 30 44 50 l32 37 -24 9 c-21 8 -24 14
-20 45 4 34 6 36 43 36 45 0 52 19 17 43 -22 15 -22 16 -3 17 11 0 27 5 35 11
12 8 7 9 -17 6 -34 -4 -43 9 -21 31 9 9 8 12 -4 12 -9 0 -18 -7 -22 -15 -7
-19 -46 -20 -46 -1 0 8 9 17 19 21 11 3 18 12 15 19 -3 8 4 15 20 18 14 3 26
1 26 -5 0 -5 12 -24 28 -41 24 -28 31 -30 55 -22 16 6 27 17 27 28 0 21 10 23
30 6 12 -11 12 -10 0 5 -7 10 -20 17 -29 15 -42 -7 -56 36 -16 46 14 4 29 14
32 23 8 21 86 12 140 -16z m-794 -117 c10 -13 17 -30 14 -37 -2 -7 3 -17 12
-24 25 -18 4 -28 -32 -15 -26 10 -34 9 -47 -4 -14 -15 -13 -16 3 -11 27 10 20
-8 -10 -23 -32 -16 -93 -78 -93 -95 0 -6 -11 -26 -25 -45 -15 -20 -25 -48 -26
-69 -1 -33 -3 -32 -14 6 -8 25 -54 -7 -61 -43 -8 -43 3 -61 23 -37 14 17 14
17 10 -3 -2 -11 2 -29 9 -39 8 -10 14 -27 14 -36 0 -26 19 -33 39 -15 15 14
26 15 61 7 23 -5 52 -18 63 -29 12 -11 32 -25 45 -31 13 -7 25 -25 29 -42 4
-24 10 -29 34 -29 16 0 29 -4 29 -9 0 -5 10 -13 23 -16 12 -4 37 -14 55 -22
38 -18 43 -50 12 -78 -11 -10 -20 -28 -20 -41 0 -42 -19 -75 -50 -85 -16 -6
-30 -17 -30 -24 0 -20 -41 -66 -53 -58 -6 4 -8 0 -4 -10 5 -12 1 -17 -13 -17
-23 0 -46 -35 -29 -45 6 -4 8 -13 5 -20 -2 -7 1 -18 7 -25 7 -7 -2 -4 -19 8
-39 27 -62 81 -76 184 -8 53 -19 92 -35 114 -34 51 -63 115 -63 139 0 12 5 36
11 53 10 30 8 34 -45 89 -62 65 -65 75 -41 168 34 131 135 301 135 228 0 -24
34 31 44 71 6 25 11 28 37 24 16 -3 32 -1 35 4 8 13 18 9 37 -18z"/>
<path d="M1390 2021 c0 -6 15 -22 34 -37 28 -23 32 -30 21 -41 -16 -15 -45
-17 -45 -3 0 6 5 10 12 10 6 0 3 9 -7 20 -22 25 -47 27 -38 3 4 -11 3 -14 -6
-9 -8 5 -10 18 -6 33 5 21 3 23 -12 15 -10 -5 -23 -7 -30 -5 -14 5 -47 -24
-56 -49 -4 -10 -16 -18 -27 -18 -11 0 -20 -5 -20 -11 0 -7 9 -9 23 -5 12 4 53
10 90 13 l68 6 -6 -26 c-6 -23 -2 -28 39 -48 38 -17 49 -19 61 -9 12 10 21 10
38 2 12 -6 36 -12 52 -14 24 -2 31 1 33 19 3 18 -3 23 -32 28 -19 4 -40 4 -46
0 -15 -9 -37 11 -55 49 -15 32 -85 95 -85 77z"/>
</g>
</svg>
