<svg width="30" height="30" viewBox="0 0 30 30" fill="none" xmlns="http://www.w3.org/2000/svg">
<path d="M15 -0.000488281C6.69316 -0.000488281 -4.57764e-05 6.69272 -4.57764e-05 14.9995C-4.57764e-05 23.3063 6.69316 29.9995 15 29.9995C23.3067 29.9995 30 23.3063 30 14.9995C30 13.3859 29.7836 11.7769 29.2067 10.276L27.3317 12.1149C27.5616 13.0389 27.6923 13.9629 27.6923 14.9995C27.6923 22.0398 22.0402 27.6918 15 27.6918C7.95969 27.6918 2.30765 22.0398 2.30765 14.9995C2.30765 7.95925 7.95969 2.3072 15 2.3072C18.4615 2.3072 21.5715 3.68641 23.762 5.87692L25.3846 4.25432C22.7298 1.59957 19.0384 -0.000488281 15 -0.000488281ZM28.0168 4.93942L15 17.9562L10.0601 13.0163L8.4014 14.675L14.1706 20.4442L15 21.2375L15.8293 20.4442L29.6754 6.59807L28.0168 4.93942Z" fill="white"/>
</svg>
