<svg width="21" height="21" viewBox="0 0 21 21" fill="none" xmlns="http://www.w3.org/2000/svg">
<path d="M10.1179 0.797852C4.58006 0.797852 0.11792 5.25999 0.11792 10.7979C0.11792 16.3357 4.58006 20.7979 10.1179 20.7979C15.6558 20.7979 20.1179 16.3357 20.1179 10.7979C20.1179 9.72213 19.9737 8.64941 19.5891 7.64881L18.3391 8.87477C18.4923 9.49076 18.5795 10.1067 18.5795 10.7979C18.5795 15.4914 14.8114 19.2594 10.1179 19.2594C5.42441 19.2594 1.65638 15.4914 1.65638 10.7979C1.65638 6.10434 5.42441 2.33631 10.1179 2.33631C12.4256 2.33631 14.4989 3.25578 15.9593 4.71612L17.041 3.63439C15.2712 1.86456 12.8102 0.797852 10.1179 0.797852ZM18.7958 4.09112L10.1179 12.769L6.82465 9.47574L5.71888 10.5815L9.56504 14.4277L10.1179 14.9565L10.6708 14.4277L19.9016 5.19689L18.7958 4.09112Z" fill="#FE5744"/>
</svg>
