<svg width="25" height="25" viewBox="0 0 25 25" fill="none" xmlns="http://www.w3.org/2000/svg">
<path d="M12.5095 5.30981C7.50952 5.30981 3.23952 8.41981 1.50952 12.8098C3.23952 17.1998 7.50952 20.3098 12.5095 20.3098C17.5095 20.3098 21.7795 17.1998 23.5095 12.8098C21.7795 8.41981 17.5095 5.30981 12.5095 5.30981ZM12.5095 17.8098C9.74952 17.8098 7.50952 15.5698 7.50952 12.8098C7.50952 10.0498 9.74952 7.80981 12.5095 7.80981C15.2695 7.80981 17.5095 10.0498 17.5095 12.8098C17.5095 15.5698 15.2695 17.8098 12.5095 17.8098ZM12.5095 9.80981C10.8495 9.80981 9.50952 11.1498 9.50952 12.8098C9.50952 14.4698 10.8495 15.8098 12.5095 15.8098C14.1695 15.8098 15.5095 14.4698 15.5095 12.8098C15.5095 11.1498 14.1695 9.80981 12.5095 9.80981Z" fill="#888888"/>
</svg>
